<?xml version="1.0" standalone="no"?>
<!DOCTYPE svg PUBLIC "-//W3C//DTD SVG 1.1//EN" "http://www.w3.org/Graphics/SVG/1.1/DTD/svg11.dtd" >
<svg xmlns="http://www.w3.org/2000/svg" xmlns:xlink="http://www.w3.org/1999/xlink" version="1.1">
<metadata></metadata>
<defs>
<font id="ink_tank_brkregular" horiz-adv-x="718" >
<font-face units-per-em="2048" ascent="1638" descent="-410" />
<missing-glyph horiz-adv-x="817" />
<glyph horiz-adv-x="0" />
<glyph horiz-adv-x="682" />
<glyph unicode=" "  horiz-adv-x="817" />
<glyph unicode="&#x09;" horiz-adv-x="817" />
<glyph unicode="&#xa0;" horiz-adv-x="817" />
<glyph unicode="," horiz-adv-x="415" d="M20 -109q14 100 30 202t18 204q6 16 11 22.5t19 14.5q12 0 43 2t66 3t65.5 3t42.5 2h21q18 0 38.5 -8t20.5 -31q0 -8 -2 -8q-10 -53 -17 -108.5t-18 -108.5q-8 -35 -22 -65.5t-25 -65.5q-4 -12 -7 -31.5t-9 -38t-18.5 -32t-32.5 -11.5q-4 0 -26.5 4t-24.5 6h-33 q-27 0 -48.5 -8t-45.5 -8q-23 0 -34.5 13.5t-11.5 33.5v14zM78 -31v-16q0 -35 21.5 -53.5t56.5 -18.5t51 9.5t24.5 26.5t12.5 38.5t16 46.5q14 33 24.5 53.5t16.5 40t8 43t2 64.5v43q0 25 -24.5 36t-44.5 11q-41 0 -79 -15.5t-48 -58.5q0 -6 -1 -21.5t-2 -33t-2 -32.5 t-1 -21q0 -8 -2.5 -25.5t-2.5 -22.5q0 -4 -4 -17t-9 -29.5t-9 -30t-4 -17.5z" />
<glyph unicode="." horiz-adv-x="370" d="M20 55v6q2 6 5.5 29t5.5 29v198q0 20 20.5 25.5t32.5 5.5q25 0 49.5 -3t48.5 -3q27 0 51.5 3t51.5 3q16 0 34.5 -8t18.5 -29v-186q2 -8 6 -31.5t4 -28t1 -7.5t1 -5q0 -27 -18.5 -38t-40.5 -11q-29 0 -55.5 3t-55.5 3q-27 0 -51.5 -3t-48.5 -3q-23 0 -41.5 14.5 t-18.5 36.5zM72 178q0 -14 2 -34.5t8 -39t18.5 -31t34.5 -12.5h98q33 0 46.5 29t13.5 53q0 41 -3 71t-15.5 48.5t-36 26.5t-66.5 8q-66 0 -83 -28t-17 -91z" />
<glyph unicode="0" d="M20 344v969q0 4 2.5 27.5t4.5 33.5q4 33 11 71t40 54q16 8 36.5 14.5t30.5 22.5q16 23 28.5 38t45.5 19q6 0 19.5 2t28 4.5t27.5 3.5t17 1h54h47q33 0 65.5 -3.5t62 -9.5t44.5 -18q39 -35 60.5 -77t30.5 -89t12 -96t5 -99v-77q0 -53 1 -120t1 -141t1 -140t1 -120v-77 q0 -4 1 -19.5t1 -21.5q0 -82 -10 -161t-26 -157q-16 -80 -54.5 -125t-124.5 -53q-47 -4 -90 -7t-88 -3q-35 0 -80 1t-73 19q-6 4 -16.5 13.5t-10.5 13.5v8h63t95.5 1t95.5 1h63q20 0 46 1t48.5 8t40 21.5t21.5 43.5q4 27 11 69.5t13.5 83.5t16.5 101v233q-4 27 -4 54v51 q0 80 3 160.5t3 160.5q0 6 -2 6q0 25 -1 66t-1 80t-1 68.5t-1 31.5q0 25 -4 43.5t-9.5 35.5t-12.5 35.5t-15 41.5q-14 39 -24.5 66.5t-55.5 37.5q-59 4 -99 5t-98 1h-84q-57 -12 -100 -55t-55 -102q0 -29 -1 -100.5t-2 -151.5t-2 -151.5t-1 -100.5v-66q0 -139 2 -282.5 t4 -272.5q6 -41 12 -94t6 -98q-16 0 -27.5 12t-17.5 29.5t-10 35t-4 27.5q-2 14 -5 40t-5 51.5t-4.5 46t-2.5 24.5zM291 246v706q2 8 4 32t2 32v49v86v84v51q0 2 1 15.5t2 30t3 32.5t4 27q2 18 11.5 42.5t31.5 24.5q14 0 23.5 -9t16.5 -22.5t10 -28t6 -24.5q2 -12 5 -36.5 t6 -51t6 -49.5t3 -29v-37q0 -129 -2 -258t-2 -258q0 -76 2 -149.5t2 -149.5v-90q0 -16 -2 -37.5t-10 -41t-21.5 -33t-34.5 -13.5q-37 0 -52 36t-15 69z" />
<glyph unicode="1" horiz-adv-x="505" d="M20 1206v27q0 12 1.5 35.5t2.5 48t2 44t1 23.5q2 27 16 55.5t45 28.5q16 0 16 -10q0 -8 -6 -20q-18 -41 -27.5 -65.5t-9.5 -67.5q0 -14 1 -34t6.5 -37t16.5 -29.5t32 -12.5q16 0 27.5 10t19.5 21.5t16 21.5t21 10q12 0 15 -17t3 -26v-901q0 -6 1 -19t1 -28q0 -14 1 -27.5 t1 -19.5q0 -25 -1 -48.5t2 -44t15.5 -35.5t41.5 -23h38q37 0 66 11t37 52q-2 186 2 364.5t4 362.5q0 4 -1 17.5t-1 15.5v67q0 45 -1 103.5t-1 122.5q0 63 -1 120.5t-1 102.5v68q-6 25 -20.5 41t-43.5 16h-213q0 12 12.5 20.5t28 14.5t31.5 9t23 3q6 0 26.5 2t45 4t46 3 t27.5 1q2 2 13.5 4t13.5 2h20q35 0 41 -30q6 -68 8 -131.5t3 -125t1 -124.5v-131v-56v-80t-1 -81.5t-1 -53.5q-4 -63 -4 -125v-123q0 -88 3 -175t3 -177v-22v-33q0 -16 -1 -31.5t-1 -21.5q-4 -23 -17 -40.5t-40 -17.5q-29 0 -56.5 5.5t-58.5 5.5q-27 0 -51 -5.5t-51 -5.5 q-20 0 -36.5 15.5t-16.5 33.5v3q2 6 5 24.5t5 22.5v274q0 174 -4 345t0 345q-2 8 -5 21.5t-8.5 26t-13.5 21.5t-20 9h-68q-16 0 -21.5 20.5t-5.5 30.5z" />
<glyph unicode="2" horiz-adv-x="755" d="M20 63v15q4 57 5 115q0 57 12 114q12 68 48 134.5t60 125.5q2 6 11.5 32t19.5 54.5t19.5 54t13.5 31.5q10 29 29.5 47.5t37.5 40.5q8 10 14.5 20.5t10.5 22.5q4 8 12.5 30t17.5 46.5t16 45t11 28.5q4 12 5.5 18t1.5 17q0 49 -56 49h-8q-4 0 -20.5 -2t-20.5 -2t-20.5 -1 t-35 -2t-33.5 -2t-19 -1t-21.5 -5.5t-21.5 -5.5h-15q-47 0 -47 50q0 143 25 278q2 6 5 21.5l6 31t6 28.5t5 19q6 29 28.5 45.5t52.5 25.5t60.5 13t55.5 4h92h90q23 0 52.5 -3t58 -12t51 -25.5t31.5 -42.5q23 -86 33 -166t10 -168q0 -72 -4.5 -154t-38.5 -147l-136 -256 q-4 -12 -14 -40t-21.5 -59.5t-21.5 -59.5t-14 -40q-10 -23 -23.5 -43.5t-13.5 -46.5q0 -23 13.5 -32t33.5 -13q55 -4 111.5 -8t111.5 -2q14 -4 28.5 -15.5t14.5 -27.5q0 -25 -11 -45.5t-11 -45.5t8 -46t8 -46q0 -20 -17.5 -32.5t-35.5 -12.5q-16 0 -28.5 1t-29.5 5h-499 q-12 -4 -23.5 -5t-23.5 -1q-25 0 -38.5 15.5t-13.5 37.5zM72 156q0 -76 80 -82q94 2 183 -2t183 -4h96q63 16 64 82q0 25 -16.5 52t-47.5 27h-202q-20 -4 -33.5 -5t-32.5 -1h-18t-23.5 3t-21 8.5t-9.5 15.5q0 16 16.5 30.5t20.5 20.5q18 27 27.5 57.5t26.5 57.5 q16 31 32.5 53.5t28.5 51t15 60t18 60.5q29 66 64.5 126t70.5 124q23 41 40 74.5t17 81.5v292q0 2 -2 14.5t-4 16.5q0 2 -3 13.5t-6 23.5t-6 23.5t-5 17.5q-10 35 -24.5 54.5t-34 27.5t-46 10t-61.5 2h-78h-70q-4 0 -16 -1t-27.5 -3l-31 -4t-23.5 -2q-31 -4 -44 -25.5 t-24 -48.5q-23 -61 -29.5 -117.5t-6.5 -123.5q0 -43 23.5 -59.5t64.5 -16.5q35 0 65.5 6t44.5 41q0 66 10.5 113t30.5 110q4 12 13.5 25.5t23.5 13.5q23 0 31 -21.5t10 -37.5q2 -10 4 -29t5 -37t5 -32.5t2 -16.5q0 -4 1 -29.5t1 -38.5q0 -12 -1 -35.5t-1 -27.5q0 -10 -4 -35 t-8 -53.5t-8 -53t-6 -34.5q-14 -47 -36 -93.5t-52 -82.5q-25 -33 -43.5 -48.5t-30.5 -52.5l-57 -182q-4 -16 -19.5 -38.5t-21.5 -33.5q-12 -23 -19.5 -45t-17.5 -49q-20 -53 -33.5 -91t-13.5 -97z" />
<glyph unicode="3" horiz-adv-x="714" d="M20 461v8q0 20 14.5 36.5t37.5 16.5h6q4 0 18.5 -2t18.5 -2t23.5 -1t43 -2t43 -2t25.5 -1q39 -2 56.5 -18.5t25.5 -36t10 -34.5t10 -15q6 0 10.5 20.5t6.5 48t2 51.5v37q0 33 -7.5 75t-35.5 65q-16 12 -34 14t-34 5t-26.5 14.5t-10.5 41.5v25q0 8 1 28.5t2 43t2 44 t1 29.5q0 4 5.5 12.5t9.5 8.5h63q14 0 24.5 10t14.5 23.5t6 29t2 25.5q0 33 -12 48t-45 15q-37 0 -81 -3t-75 -7q-6 -2 -34.5 -8t-34.5 -8h-4q-23 0 -35.5 15t-12.5 36q0 20 2.5 33.5t10.5 36.5v155q0 2 7 27.5t11 40.5q14 55 46 89t74 52t92 24.5t102 6.5q92 0 178 -31 q49 -18 76.5 -41.5t43 -56.5t19.5 -73t6 -89v-98q0 -94 -3 -187.5t-3 -187.5q0 -88 6 -174t6 -176v-23v-29q0 -14 -1 -25t-1 -13q0 -4 -2 -28t-4 -54.5t-4 -61.5t-4 -49q0 -4 -2 -17.5t-4 -19.5q0 -4 -2 -16t-7.5 -24.5t-11.5 -20.5t-16 -6q-2 0 -5 4t-5 6v63q0 74 6 148 t6 147q0 76 -1 142.5t-5 140.5q-6 25 -20.5 43t-32.5 35v6q16 16 30.5 35.5t16.5 42.5q8 68 7 138.5t-1 135.5v191q-4 35 -16.5 73.5t-51.5 50.5q-8 2 -29.5 7.5t-46 10.5t-46 9t-29.5 4q-2 0 -20.5 1t-29.5 1q-10 0 -33.5 -1t-27.5 -1q-39 -2 -70.5 -6t-56 -16.5t-42 -36 t-28.5 -66.5q-10 -39 -21 -87t-11 -93q0 -27 10 -48.5t37 -31.5h57q12 0 32.5 -1t41 3t36 13.5t15.5 31.5q0 8 2 29.5t4 45.5t4 45.5t2 31.5q0 12 2 28.5t8.5 32t16.5 26.5t29 11q23 0 32 -22.5t11 -40.5q4 -80 7 -152t3 -149q0 -10 -3 -44t-9.5 -70t-15.5 -63.5t-23 -27.5 h-6q-12 12 -25.5 24.5t-32.5 12.5q-27 0 -37 -23.5t-10 -46.5t11.5 -52.5t37.5 -29.5q18 0 30.5 13.5t31.5 13.5q10 0 20 -27t18.5 -61.5t13.5 -66.5t5 -44q2 -49 3 -104.5t1 -106.5v-39q0 -10 -4 -32.5t-8 -48t-8 -49t-6 -32.5q-4 -14 -12.5 -27.5t-26.5 -13.5t-33 11.5 t-24 28t-14 35t-5 34.5q0 8 -1 31.5t-1 48.5q0 27 -1 49.5t-1 32.5q-14 33 -42 43t-61 10q-47 0 -79.5 -17.5t-32.5 -70.5q0 -29 2 -50.5t6 -40t10 -37.5t14 -46q8 -33 11.5 -54.5t10.5 -37t21.5 -27.5t45.5 -27q2 0 7 -2t9 -2q10 -4 27.5 -8t19.5 -4h233q31 6 54 6 q8 0 14 -1t6 -11q0 -12 -11 -19.5t-25.5 -11.5t-30 -6t-21.5 -2q-10 -2 -31.5 -4t-25.5 -2h-78q-51 0 -99 3t-96 24q-31 12 -52 44.5t-34.5 72.5t-19.5 80t-8 69q0 4 -1 23.5t-1 39.5q0 23 -1 42.5t-1 23.5q-2 4 -4.5 21.5t-2.5 21.5z" />
<glyph unicode="4" horiz-adv-x="782" d="M20 428v6q2 6 5.5 25.5t5.5 25.5q0 10 1 37t2 55.5t2 54t1 36.5q0 14 4 48t6 42l176 749q8 37 46 53.5t85 22.5t92 6q47 0 74 2q2 0 11.5 2t20.5 3t20.5 3.5t11.5 2.5h8q23 0 39 -19.5t16 -40.5q0 -18 -3 -36.5t-3 -37.5q0 -193 7 -384t3 -384q2 -31 18.5 -47t35 -25.5 t34 -14.5t15.5 -17v-141q6 -10 7 -19.5t1 -19.5v-10q0 -6 -2 -9q-10 -16 -32.5 -18t-39.5 -12q-23 -16 -29 -37t-8 -47q0 -12 -2 -43t-4 -65t-3 -63.5t-1 -41.5q-6 -16 -15.5 -29.5t-25.5 -17.5q-39 2 -81 1t-81 -8q-16 -2 -32.5 -11t-32.5 -9t-25.5 11.5t-13.5 25.5 q2 66 -2 141.5t-8 138.5q-6 23 -19.5 39.5t-38.5 18.5l-209 10q-16 2 -26.5 17.5t-10.5 29.5zM88 510q0 -25 13.5 -50.5t43.5 -25.5h125q16 0 29.5 9.5t24.5 21.5v24q0 18 -9.5 33t-20.5 28t-20.5 27.5t-9.5 32.5q0 4 2 17q0 4 4 20.5t6 20.5q16 92 34 180t38 180 q0 4 4 17.5t9.5 30t9.5 29.5t4 17q0 2 1 12.5t2 22.5t2 23.5t1 13.5q0 6 2 19.5t2 17.5q0 2 2 6t4 4l2 2l2 -2q2 0 4 -4t2 -6q0 -4 2.5 -18.5t2.5 -18.5v-23q0 -16 1 -35.5t1 -37.5v-23q0 -137 -11.5 -273t-11.5 -274v-43q10 -35 28.5 -46t49.5 -31l2 -2q0 -8 -12.5 -13.5 t-27.5 -14.5t-27.5 -25.5t-12.5 -43.5v-182q0 -20 13.5 -30.5t29.5 -16.5h33q14 0 36.5 1t42 7t34 18.5t14.5 34.5v183q0 8 -4 16q-4 10 -17.5 29.5t-13.5 25.5q0 4 5 14.5t12.5 25t14.5 27.5t9 23v211q0 199 -4 395.5t-2 395.5q-10 39 -45 51q-4 2 -19 2h-18h-23 q-12 0 -14 -2q-8 0 -27.5 -2t-43 -4t-43 -5t-27.5 -3q-31 -8 -44.5 -26.5t-23.5 -47.5q0 -29 -1 -73t-15 -79q-8 -23 -19.5 -48t-15.5 -50q-10 -63 -17.5 -109.5t-29.5 -103.5q-2 -4 -6 -16.5t-4 -16.5q-8 -25 -10.5 -46t-6.5 -52q-4 -35 -20.5 -65.5t-20.5 -65.5 q0 -12 -1 -41t-2 -60.5t-2 -60t-1 -41.5v-12zM641 504q0 -23 7 -49.5t36 -26.5q16 0 25.5 16.5t9.5 32.5q0 8 -1 25.5t-6 35t-13.5 30t-22.5 12.5q-25 0 -30 -29t-5 -47z" />
<glyph unicode="5" d="M20 809v84v98q0 23 2.5 83.5t3.5 127t3 127t2 82.5q0 6 2 21.5t3 34t3 34t2 21.5q2 16 10 34.5t27 22.5q10 2 36.5 4t56.5 4t56.5 4t36.5 2h12q12 0 27.5 1t30.5 1h24q70 0 124.5 -1t125.5 -5q23 -6 35 -18t12 -35t-8 -43t-8 -45t8 -47.5t8 -46.5q0 -18 -15 -29.5 t-32 -11.5q-29 0 -56.5 3t-57.5 3h-68q-20 -2 -49 -10.5t-29 -36.5v-152q0 -35 33 -49t77 -20.5t89 -11.5t67 -23q25 -18 40.5 -45t24.5 -57.5t13 -62.5t4 -58v-371q0 -59 -9 -125t-25 -125q-4 -8 -13.5 -38t-13.5 -40q-14 -39 -46 -58.5t-72 -28.5t-82 -10t-75 -1 q-10 0 -45.5 1t-74.5 7t-70 18t-31 35q0 10 6 13h21h20q49 -8 81 -15.5t81 -7.5q20 0 52 -2t66 0t62.5 10t42.5 29q14 18 18.5 43t8.5 45q12 51 21.5 88t15.5 90q4 104 5 193.5t1 187.5v35q0 25 -2 27q0 8 -1 27.5t-3 42t-3 43t-3 28.5q-8 27 -34 41t-56.5 20t-63.5 6h-51 q-29 0 -52.5 -10t-23.5 -45q0 -29 18.5 -49t28.5 -47q16 -41 21.5 -87t9.5 -91v-29q0 -20 1 -42.5t1 -45.5v-29v-39q0 -23 -1 -45t-1 -41v-20q0 -4 -2 -22.5t-4 -43t-4 -50t-4 -40.5q-4 -23 -14.5 -48t-37.5 -25q-25 0 -40 18t-22 44t-10 53.5t-3 45.5q0 23 3 42.5t3 41.5 q0 33 -31 52.5t-59 19.5q-12 0 -33 -2t-39 -8t-31.5 -18.5t-13.5 -32.5v-240q0 -4 -3 -13.5t-9 -13.5q-10 6 -17.5 19.5t-10.5 30t-5 33t-2 28.5q0 6 -2 30.5t-3 56.5t-3 62.5t-2 47.5q0 2 -1 6t-1 6q0 6 2 19.5t7 25.5t13 21.5t19 9.5q20 0 38.5 -17.5t40.5 -17.5h115 q10 0 27.5 -9.5t23.5 -13.5q10 -6 13.5 -14t5.5 -18.5t5 -19.5t13 -15l6 6q4 35 12.5 70.5t8.5 70.5q0 23 -8.5 52.5t-38.5 29.5h-166q-31 0 -52.5 -20.5t-48.5 -20.5q-16 0 -22 22.5t-8 34.5q0 8 -2 30t-4 45.5t-3.5 45t-1.5 31.5zM78 729q8 -29 32.5 -45t55.5 -16 q10 0 30.5 2t40 8t35 17.5t15.5 29.5v213q-10 27 -11.5 41t-1.5 39q0 16 1 30.5t6 30.5v207q-2 8 -5.5 29.5t-5.5 27.5v9q0 20 9.5 37.5t31.5 17.5q23 0 39.5 -15.5t38.5 -15.5h158q29 0 43 28t14 50q0 61 -63 78q-6 0 -24.5 2t-38 4t-38 3t-24.5 1h-51h-48q-10 0 -34.5 -2 t-51 -5t-51 -5t-35.5 -4q-31 -8 -43 -25.5t-18 -46.5q0 -23 -1 -80t-2 -121.5t-2 -121t-1 -78.5v-162v-162z" />
<glyph unicode="6" horiz-adv-x="708" d="M20 588v614q0 47 8.5 100.5t22.5 98.5q2 8 7 24.5t11.5 33t11.5 31.5t7 19q14 39 46 60.5t71 32t80 12.5t73 2q174 0 249 -76t75 -254v-4q0 -8 -2 -29.5t-3 -46t-3 -46t-2 -30.5q-6 -27 -19.5 -52t-13.5 -54q0 -53 14.5 -111.5t22.5 -105.5q4 -12 7 -44t3 -38 q0 -2 1 -14.5t1 -28.5v-33v-26v-27v-31q0 -16 -1 -29.5t-1 -15.5q-2 -82 -6 -168t-18 -170q-12 -68 -40 -106.5t-68 -57t-92 -23.5t-116 -5q-82 0 -150.5 14t-123.5 80q-10 14 -17.5 36.5t-7.5 41.5zM72 891l26 -782q2 -27 23.5 -37.5t44.5 -14.5q10 -2 28.5 -4t36 -5 t30.5 -5t15 -2h62h74q2 0 13 2t17 4q25 6 52.5 10t52 14.5t42 29t19.5 51.5q0 2 1 16t2 29.5t2 30t1 18.5q8 92 12.5 180t4.5 180v23v39q0 20 -1 37.5t-1 23.5q-4 31 -12.5 63.5t-12.5 61.5q-4 14 -6 39t-9 47.5t-19.5 38.5t-37.5 16q-18 0 -46.5 1t-57.5 -4t-49.5 -18 t-20.5 -42q0 -18 7.5 -34.5t16.5 -33t16.5 -33t7.5 -34.5v-334q6 -35 6 -72v-72v-83q0 -12 -2 -27.5t-6.5 -29t-13.5 -24t-25 -10.5q-29 0 -42.5 28t-15.5 50q0 8 -1 25.5t-2 38t-2 38t-1 23.5v121q0 82 3 162t3 162v77q-4 23 -10 51.5l-10 47.5v30q0 23 -1 47.5t-1 47.5v30 q0 63 1 130t5 130q6 23 20.5 41.5t40.5 18.5q20 0 38 -15.5t18 -37.5v-203q0 -25 15 -40t36.5 -22.5t45 -9.5t40.5 -2q23 0 51.5 18.5t28.5 45.5v196q0 8 -6.5 25.5t-10.5 21.5q-23 47 -46 74t-52 39t-65.5 15t-86.5 3q-23 0 -56.5 2t-66 -3t-60.5 -18t-36 -44l-55 -193 l-6 -30q0 -2 -1 -24.5t-2 -53.5t-2 -62.5t-1 -52.5v-100v-82zM365 1075q0 -6 5 -12t9 -10q4 0 13 -1t14 -1h20t16 12q0 16 -15 26.5t-32 10.5q-10 0 -20 -6.5t-10 -18.5zM520 1053q0 -12 11.5 -17.5t21.5 -5.5q25 0 25 23q0 10 -10.5 13t-18.5 3t-18.5 -3t-10.5 -13z" />
<glyph unicode="7" horiz-adv-x="708" d="M20 1552q0 23 20.5 30t43.5 11q12 0 42 2t36 2h416q16 4 26 5.5t27 1.5q16 0 35.5 -8.5t19.5 -28.5v-338l-156 -803q0 -10 -3 -31.5t-6 -46t-6 -47t-5 -31.5q-6 -35 -13.5 -62.5t-12.5 -54t-7 -53t2 -59.5q-4 -20 -21.5 -28.5t-35.5 -8.5q-27 0 -51.5 3t-51.5 3 q-29 0 -53 -3t-53 -3h-27q-30 14 -30 47q0 14 3 24.5t7 26.5l16 209l119 656q16 61 34.5 136t18.5 140q0 33 -16 53.5t-51 20.5h-203q-23 0 -41 13t-18 36q0 20 6 39.5t6 42.5q0 29 -8.5 52.5t-8.5 51.5zM78 1460q0 -35 13 -58.5t48 -33.5h43q35 0 70 3t70 13 q18 4 35.5 17.5t35.5 13.5q25 0 40.5 -21.5t15.5 -43.5q0 -23 -11.5 -43.5t-15.5 -42.5l-37 -240q-10 -27 -23.5 -64.5t-17.5 -70.5q-8 -51 -9 -85t-13 -81q-23 -92 -42.5 -182t-29.5 -183q0 -4 -2 -18t-4 -18q0 -4 -3 -17.5t-7.5 -29t-7.5 -30t-3 -18.5v-57v-57 q10 -37 37 -49.5t62 -12.5q37 0 57 8.5t29.5 23.5t11.5 38.5t6 54.5t14.5 60.5t18.5 58.5q0 10 3 36.5t6 57.5t6 57.5t5 36.5q0 8 6.5 38t13.5 63.5t13 63.5t8 38q16 92 32.5 182t31.5 183q4 37 20.5 70.5t20.5 70.5q0 8 2 26.5t4 38t3 35t1 19.5v88v90q-4 20 -18.5 38.5 t-38.5 18.5h-443q-31 0 -44 -31.5t-13 -54.5z" />
<glyph unicode="8" horiz-adv-x="724" d="M20 1141v55q0 4 2.5 27.5t5.5 53.5t5 59.5t4 45.5q2 27 8 57.5t12 53.5q8 39 43 61.5t79 35t90 15.5t79 3h33q59 -4 110.5 -8.5t91.5 -22.5t65.5 -56t33.5 -108q2 -8 3 -24.5t3 -35t3 -33.5t1 -22v-14q0 -10 1 -25.5t1 -31.5v-23q0 -88 -9 -174t-9 -174q0 -80 14.5 -160 t14.5 -161q0 -2 -1.5 -6.5t-1.5 -6.5q0 -18 -2 -56t-5 -79t-5 -76t-2 -45q-2 -14 -6 -43.5t-13.5 -59.5t-24.5 -52.5t-40 -22.5q0 29 11.5 62.5t15.5 64.5q2 16 4 45t4 57.5t4 50t2 23.5t1 15.5t1 29.5v37v29q0 45 1 105.5t-13 107.5q-4 12 -13.5 30.5t-19.5 37t-17 33.5 t-7 24q0 20 16 36.5t20 36.5q16 63 21.5 127t5.5 129q0 80 -5 159t-5 159q-12 41 -53 53q-8 0 -28 2t-41.5 3t-39.5 3t-27 2h-84h-82q-4 -2 -13 -3t-13 -3q-51 -14 -93 -26.5t-63 -61.5q-2 -12 -4 -43t-5 -64.5t-5 -64.5t-2 -43v-14t-1 -27.5t-1 -32.5v-22q0 -16 1 -47 t1 -33t4 -19.5t8 -42t9 -50t10 -40.5q6 -27 21 -44t36 -33v-7q0 -12 -22.5 -26.5t-28.5 -24.5q-18 -27 -23.5 -60.5t-7.5 -64.5q0 -276 -6 -547q0 -2 -6 -2q-10 0 -16.5 11.5t-10.5 27t-6 30.5t-2 22q-2 10 -4 33.5t-2 27.5v381q2 8 4 30.5t5 48t5 47t2 32.5v51 q0 74 -13.5 146.5t-13.5 148.5zM127 57q70 0 137.5 -10t136.5 -10q25 0 48.5 7t46 14.5t46 14.5t48.5 7q0 -37 -25.5 -56.5t-60.5 -27.5t-72 -9t-59 -1h-66q-12 0 -41.5 3t-60.5 11t-54.5 22.5t-23.5 34.5zM291 381v29v34q0 20 1 57.5l2 75t2 67.5t1 36q2 41 16.5 77 t14.5 77q0 33 -13.5 61.5t-13.5 58.5v428q0 23 16.5 40.5t38.5 17.5q29 0 41.5 -22.5t14.5 -45.5q0 -12 2 -43t4 -64.5t3 -63.5t1 -42v-90v-88q-2 -6 -5 -20.5t-6 -31t-6.5 -31.5t-3.5 -21q0 -2 -1 -15.5t-1 -19.5q0 -41 10.5 -79t12.5 -79q0 -10 1 -33.5t2 -49.5t2 -50.5 t1 -32.5v-102v-103q-2 -16 -7 -44.5t-15.5 -56.5t-24.5 -49.5t-35 -21.5q-18 0 -24.5 13.5t-8.5 29.5q-2 10 -5 39t-6 59.5t-6 59.5t-5 39z" />
<glyph unicode="9" d="M20 1120v31q0 49 5.5 99t15.5 98q2 6 7 26.5t12.5 46t13.5 49t10 35.5q6 25 19.5 46.5t41.5 25.5q51 10 99.5 16t99.5 6h27q18 0 18 -2q35 -2 76 -2t78 -9t66.5 -29.5t41.5 -61.5q14 -51 25.5 -101.5t15.5 -103.5q0 -27 1 -93.5t1 -139.5q0 -74 1 -140.5t1 -93.5v-32 q0 -27 1 -63t1 -73v-57v-45q0 -31 -1 -65.5t-1 -67.5v-45q-4 -53 -12 -109.5t-18 -109.5q-8 -37 -17.5 -61.5t-25 -41t-38 -27t-59.5 -20.5t-72.5 -13t-72.5 -3q-25 0 -63.5 1t-79.5 8t-77 20.5t-52 37.5q-23 35 -37.5 89.5t-22.5 115t-10 117.5t-2 96q0 35 15.5 61.5 t15.5 61.5v27zM78 1067l37 -365q4 -27 17 -51t34 -43h59h43q25 0 46.5 6.5t36 19.5t14.5 42q0 23 -9.5 41t-20.5 36.5t-21.5 38t-12.5 42.5q0 12 -2 30.5t-4 38t-3 33.5t-1 16v375q0 14 2 33.5t9 37t19.5 29t32.5 11.5t33.5 -11.5t23 -29t14.5 -37t7 -33.5v-108 q0 -215 -10 -427t-6 -427q0 -6 -1 -21.5t-3 -33t-4 -33t-2 -21.5q0 -4 -6.5 -29.5t-10.5 -38.5q-4 -16 -12 -32.5t-27 -16.5q-12 0 -20 12.5t-11.5 29t-5.5 31.5t-2 21q0 10 -1 37t-1 58t-1 57.5t-1 36.5q-6 25 -20.5 39t-35 20t-43 7t-44.5 1q-35 0 -53.5 -19t-18.5 -52 q0 -4 1 -12.5t1 -10.5l35 -260q6 -35 30.5 -54.5t59.5 -23.5q45 -4 93 -7t96 -3q43 0 82.5 13.5t80.5 27.5q18 12 27.5 29.5t12.5 37t4 40t3 38.5q0 4 3.5 16.5t5.5 27t5 25.5t3 15t2 20.5t2 20.5q0 18 1 62.5t1 93.5v92v64v80v100t-1 87t-1 42v59q0 45 -1 94.5t-2 92.5 t-1 61q-4 43 -14.5 83t-22.5 83q-14 51 -45 69.5t-80 24.5q-12 0 -43 1t-66.5 2t-66.5 2t-43 1h-21q-33 0 -60.5 -16t-37.5 -51l-51 -209q-2 -4 -4 -20.5t-2 -20.5v-96v-72z" />
<glyph unicode="A" horiz-adv-x="897" d="M20 45v2q2 6 7.5 26.5t9.5 26.5q2 20 6 73.5t8 112t9.5 112t7.5 73.5q0 4 2 17.5t2 17.5q2 12 9 42t15 63.5t14.5 62t8.5 41.5l141 870q2 12 12.5 29.5t24.5 17.5h334q10 0 26.5 -15t16.5 -26v-88l186 -1308q0 -35 8.5 -66t8.5 -63q0 -20 -16.5 -35t-37.5 -15 q-27 0 -63 11h-187q-14 0 -25 19.5t-11 29.5q0 20 3 39.5t3 40.5v39q0 6 -2 24.5t-3 40t-3.5 39.5t-4.5 25q-8 35 -28.5 47t-52.5 12q-78 0 -84 -80l-21 -229q-2 -16 -11 -36t-32 -22l-172 -10q-18 -6 -28.5 -8t-26.5 -2q-20 0 -37 13.5t-17 35.5zM92 119q0 -41 23.5 -53.5 t60.5 -12.5q45 0 84 17.5t41 70.5l12 283q0 8 9.5 20.5t15.5 16.5h20q23 0 43.5 -6t42.5 -6q23 0 43.5 8t42.5 8q18 0 29.5 -14.5t18 -34t8.5 -39t2 -31.5q0 -10 1 -36.5t1 -55.5t-1 -55.5t-1 -36.5q8 -61 37.5 -74.5t89.5 -13.5h45q29 8 39 23.5t10 41.5q0 4 -2 23 q0 4 -4 26.5t-6 26.5q0 8 -3 39t-7.5 65.5t-7.5 65.5t-3 39q0 4 -3 23.5t-7 43t-7 43t-3 25.5q-4 35 -3 55.5t-8 49.5q0 2 -4 15t-9 28.5t-9 28t-4 16.5q-14 55 -15.5 112.5t-1.5 112.5q-6 47 -22 91t-23 91q-12 92 -16 179t-20 180q-12 47 -54 57q-6 0 -24.5 1t-40 2t-40 2 t-24.5 1h-37h-36q-41 -14 -52 -63q-4 -10 -8 -26.5l-8 -33t-7 -30t-3 -15.5l-64 -426q-2 -6 -5 -21.5t-7 -31.5t-8 -30.5t-4 -20.5q-8 -29 -9 -54q0 -23 -4 -57q0 -10 -2 -27.5t-5 -36t-5 -32.5t-2 -19q0 -4 -5 -20t-10 -35.5t-10.5 -37t-5.5 -21.5q-23 -104 -36 -211 t-13 -213zM334 627q0 6 7 14t16.5 19.5t17.5 23.5t10 27l55 499q0 168 3 171t6 8l4 4h4q10 0 13 -18.5t3 -22.5q0 -18 2 -67.5t5 -103t5 -102.5t4 -67q0 -4 3.5 -24.5t5.5 -45t5 -45t3 -25.5q0 -8 1 -29.5t2 -46t1 -46.5v-29q0 -4 2 -11.5t4 -9.5q4 -8 15.5 -31.5 t15.5 -31.5v-10q0 -10 -4 -23.5t-17 -13.5q-8 2 -37 2q-27 0 -36 -2q-2 0 -14.5 -5t-16.5 -5h-21q-14 0 -40.5 14.5t-26.5 32.5z" />
<glyph unicode="B" horiz-adv-x="765" d="M20 55q0 18 3.5 36t3.5 36q0 297 -3.5 591t-3.5 591v94q0 6 1.5 26.5t3.5 46t4 50t2 37.5q2 25 9 41t28 26q8 0 29.5 1t46 2t46 2t29.5 1h78q78 0 153.5 -5t143.5 -42q35 -20 57.5 -31.5t46.5 -39.5q14 -20 18.5 -49t6.5 -52q2 -10 3 -32.5t3 -47t3 -45t1 -26.5 q0 -2 1 -25.5t1 -36.5q0 -82 -9 -164t-9 -166q0 -86 14 -168.5t14 -168.5v-45t-2 -33q0 -14 -2 -52t-4 -80t-5 -80t-3 -52q-6 -37 -11 -63t-17.5 -43t-35 -27.5t-61.5 -18.5q-12 -4 -35.5 -7t-27.5 -3l-412 -21q-6 -4 -27.5 -9t-29.5 -7h-6q-25 0 -35.5 19.5t-10.5 39.5z M78 115q8 -29 25.5 -38t46.5 -9q4 0 12 1t10 1q20 0 73.5 2t113 5t112.5 5t76 2q18 2 38.5 6t39 12.5t32 20.5t19.5 35q2 14 3 51t3 79t3 78.5t1 51.5q0 2 1 16.5t1 32.5v37v31v22v37q0 18 -1 34.5t-1 22.5q-4 29 -9 60.5t-15 60.5q-6 14 -19.5 27.5t-27 24t-23.5 18.5 t-10 10t2 4q4 8 12 14.5t16.5 12.5t17.5 15t15 26q2 6 5 22.5t8.5 34.5t8.5 34.5t5 22.5q2 4 3 16.5t1 14.5v365q0 18 -11.5 34.5t-23.5 26.5q-6 4 -24.5 13.5t-38 18.5t-38 18t-24.5 14q-10 4 -30.5 12t-32.5 8h-318q-29 0 -41 -25.5t-16 -48.5v-194v-195q0 -6 1 -20.5 t2 -29.5t2 -29.5t1 -20.5v-318q0 -131 -3 -260t-3 -260v-63zM264 1376q0 23 16.5 36t30.5 26q2 0 7.5 1t7.5 1q16 0 24 -7.5t25 -15.5q33 -14 53.5 -25.5t24.5 -52.5q0 -6 2 -34.5t4 -38.5v-13v-12q-2 -12 -5 -45t-6.5 -67.5t-6.5 -67.5t-5 -45q-4 -35 -17 -54.5t-27.5 -36 t-26 -34t-11.5 -47.5q0 -23 8.5 -33t19.5 -18.5t24.5 -15.5t25.5 -21q6 -8 12.5 -34t10.5 -55.5t6 -57t2 -42.5q0 -68 -4 -135t-6 -135q-2 -20 -10.5 -29.5t-19.5 -13.5t-25.5 -7t-28.5 -11q-10 -8 -20.5 -17.5t-26.5 -9.5q-25 0 -28 24.5t-3 40.5q0 94 5 187.5t5 189.5 q0 31 -15.5 53.5t-15.5 47.5q0 23 20.5 44t20.5 52v2q0 2 -1 13t-1 24q0 12 -1 22.5t-1 14.5v348q-4 31 -23.5 56.5t-19.5 47.5zM342 498q0 -8 1 -31t5 -46.5t11.5 -42t19.5 -18.5t19.5 19.5t11.5 45.5t5 49.5t1 31.5v63q0 27 -4 68q-4 4 -10.5 17.5t-16.5 13.5 q-16 0 -25.5 -25t-13.5 -55.5t-4 -57.5v-32z" />
<glyph unicode="C" horiz-adv-x="739" d="M20 416v100q0 88 3.5 174t3.5 174q0 90 -3.5 178t-3.5 179v43q0 8 2.5 33.5t5.5 53t5 53.5t4 38q0 4 3 23.5t7 27.5q4 12 10 29.5t23 17.5q10 0 14 -7t4 -17q0 -37 -8 -72t-8 -70v-698q0 -6 -2 -21.5t-3 -33t-3 -33t-2 -21.5v-32q0 -98 11 -193.5t11 -194.5v-24 q0 -14 -12 -14t-19.5 9t-11.5 22.5t-6 26.5t-4 21q-2 12 -5 45t-6 69t-6.5 68.5t-3.5 45.5zM170 27q0 12 14.5 13t22.5 1h235q2 0 17.5 2t36 5t40 5t31.5 4q37 6 56.5 29t27.5 54.5t9.5 66.5t1.5 63v88v91q-8 47 -44 59t-77 12q-23 0 -51.5 -6t-36.5 -35q0 -6 1 -19.5 t1 -29.5t-1 -29.5t-1 -19.5q0 -2 -4.5 -20.5t-8.5 -43t-10 -49t-8 -39.5q-4 -14 -12.5 -28.5t-24.5 -14.5q-33 0 -61.5 30t-36.5 60v23q0 16 -1 34.5t-1 35.5v24q0 166 4 329q3 109 3 219q0 55 -1 110q2 8 4 26.5t5 39t5 39t2 26.5v37q0 35 -6 67.5t-6 67.5q0 23 10 50.5 t39 27.5h27q18 0 36.5 -4.5t32 -12.5t13.5 -26v-166q0 -35 30.5 -48.5t57.5 -13.5q41 0 74.5 7.5t46.5 50.5v51v51q-2 12 -6.5 38.5t-9.5 57.5t-10 58.5t-7 37.5q-4 23 -18.5 41.5t-39.5 22.5q-16 2 -40.5 8t-49 10t-59.5 13h-236q-4 0 -9 5t-5 9q0 14 23.5 20.5t33.5 6.5 q8 2 27.5 4t24.5 2h71h78t86 -6.5t82 -21.5t64 -46q4 -4 8 -16.5t6 -18.5q16 -63 29.5 -126.5t13.5 -129.5q0 -16 1 -47t-3 -61.5t-17.5 -54t-42.5 -23.5h-18q-8 0 -30.5 1t-49.5 1t-49.5 1t-30.5 1q-18 2 -40.5 9t-32.5 24q-2 33 -3.5 54.5t-17.5 47.5h-2q-6 0 -9 -5t-5 -9 q3 -25 3 -48q0 -59 -18 -114q0 -20 -1 -70.5t-2 -106.5t-2 -106.5t-1 -70.5v-66q0 -29 3 -54.5t3 -53.5q0 -31 -6 -60.5t-6 -60.5v-17q0 -12 2 -25.5t8 -23.5t17 -10q12 0 21 16.5t15.5 38t8.5 40t2 24.5q0 16 -8.5 30.5t-8.5 30.5q0 23 26 32t44 13q10 0 35.5 1t54.5 2 t54.5 2t35.5 1h4q20 0 40 -15t20 -38v-264q0 -90 -22.5 -142.5t-65.5 -80t-103.5 -35.5t-136.5 -8q-53 0 -109.5 0.5t-103.5 29.5q0 2 -1 3.5t-1 3.5z" />
<glyph unicode="D" horiz-adv-x="765" d="M20 801q0 174 5.5 347t5.5 347q0 20 -5.5 38.5t-5.5 37.5q0 20 15.5 31.5t32.5 15.5q8 2 32.5 4t52 5t52 5t35.5 2h61q66 0 130.5 -3t119.5 -22.5t96 -59.5t62 -113q16 -61 25 -126t9 -128v-762q0 -4 -2 -23.5t-4 -43l-4 -47t-4 -36.5q-12 -86 -51 -137t-96.5 -77.5 t-129 -34t-147.5 -7.5h-82q-10 0 -33.5 2t-49 5.5t-50.5 5.5t-33 4q-12 4 -21 14t-9 21q1 57 1 114q0 128 -4 254q-4 182 -4 367zM78 129q0 -25 17.5 -37t33.5 -20q8 0 28.5 -1t43 -2t42 -2t27.5 -1h66h65q27 6 51.5 17t51.5 15q20 2 43.5 3t44 7.5t37 18.5t22.5 39 q2 14 8.5 42t11.5 55.5t10 50t5 28.5q2 6 4 28.5t2 28.5v824q0 2 -2 16t-4 21q0 2 -3 16t-6 29.5t-7 30t-4 18.5q-4 16 -8.5 44.5t-12.5 58.5t-22.5 53.5t-38.5 29.5l-183 41q-4 2 -28 2h-37h-23h-26q-12 0 -23.5 -1t-13.5 -1q-23 0 -49.5 -1t-51 -7t-43 -21.5t-22.5 -42.5 v-526q0 -6 -1 -22.5t-2 -35t-2 -35t-1 -22.5v-739zM285 1370q0 18 7 42t34 24h8q4 -4 17.5 -15.5t17.5 -15.5q2 -2 6 -3t4 -3q6 -2 26.5 -5t26.5 -5q4 -4 11.5 -10.5t9.5 -14.5q2 -70 9 -137.5t7 -136.5q0 -57 -3 -113.5t-3 -116.5q0 -76 3 -149.5t3 -147.5 q0 -84 -12.5 -160.5t-20.5 -158.5q-2 -10 -9 -16.5t-15 -10.5q-10 -4 -38 -11l-36 -9h-4q-12 0 -17.5 8t-9.5 18q-4 92 -5 166t-1 166q0 86 6 169t6 169q0 12 -1 38.5t-1 31.5q0 14 -1 56t-3 88t-4 88t-2 58q-2 31 -9 59.5t-7 57.5zM358 743q0 -18 1 -63t2 -95t2.5 -95.5 t1.5 -63.5l1 -8t2 -16.5t5 -15.5t10 -7h2l6 6q6 10 9 28.5t6 28.5q2 78 4 158t2 158q0 47 -3 96t-3 96q0 53 5 103.5t5 103.5v45q0 2 -1 15.5t-4 26.5t-9.5 24.5t-14.5 11.5q-10 0 -13 -13.5t-5 -17.5q-2 -12 -6.5 -37.5t-4.5 -29.5v-49q0 -47 6.5 -93.5t6.5 -93.5 q0 -41 -6.5 -83t-6.5 -83v-37z" />
<glyph unicode="E" horiz-adv-x="645" d="M20 57q0 18 1.5 30.5t5.5 31.5v1118l20 373q0 18 14.5 27.5t28.5 9.5q16 0 26.5 -2.5t28.5 -8.5q18 0 66.5 -1t101.5 -1q55 0 103.5 -1t66.5 -1h6q16 0 35 2t35 2q23 0 39 -9t16 -36q0 -14 -1 -24.5t-7 -24.5v-160q0 -2 -3 -5l-5 -5q-23 -25 -61.5 -28t-77.5 -6 t-66.5 -17t-27.5 -64v-202q0 -25 17 -39.5t38 -18.5h45q23 0 42 2t42 2q16 0 27.5 -8t21.5 -22v-23q0 -23 -3 -42t-3 -40q0 -25 5 -47t5 -45q0 -39 -41 -53q-23 0 -53.5 2t-58 -2t-50 -17.5t-30.5 -44.5q-4 -63 -5.5 -106t-1.5 -102v-17v-26t1.5 -26.5t1.5 -19.5 q9 -43 39 -52q24 -7 54 -7h13q18 1 36.5 1t36.5 -1q36 -2 58 -29q2 -2 6 -10v-135q6 -20 11.5 -38.5t5.5 -39.5q0 -14 -11.5 -25.5t-25.5 -11.5h-459q-18 -8 -29.5 -9t-29.5 -1q-50 0 -50 53zM76 1188q0 -61 6 -120.5t6 -119.5q0 -193 -5 -385t-5 -385v-55q12 -39 51 -51 q12 0 46 -1t71 -2t70.5 -2t48.5 -1h71h74q31 10 44 35.5t13 56.5q0 29 -14 59.5t-49 30.5h-94q-18 0 -40 -18.5t-32 -28.5h-10q-25 0 -31 29.5t-6 48.5q0 16 1 28t5 29q0 12 2 45t3 67.5t3 67.5t2 45v62q0 29 -3 57.5t-3 56.5q0 29 8 57.5t8 59.5q0 68 -11 135.5t-11 134.5 q0 43 6 85t6 85q0 20 -3 39t-3 39q0 14 9 41t30 27h8q25 -29 48.5 -39t58.5 -10q49 0 80.5 20.5t31.5 75.5q0 10 -2 26.5t-8 31t-16.5 24.5t-26.5 10h-369q-23 0 -33 -17.5t-14 -33.5q-2 -14 -5 -50t-6 -76t-6 -75t-3 -49v-14q0 -10 -1 -24.5t-1 -29.5v-22zM352 850 q0 -41 29 -61.5t65 -20.5q45 0 75 21.5t30 70.5q0 37 -22.5 61.5t-61.5 24.5q-47 0 -81 -22.5t-34 -73.5z" />
<glyph unicode="F" horiz-adv-x="624" d="M20 565v94v84q0 59 1.5 133t1.5 154q0 82 1 156t2 131t1 86q4 45 5 91v31q0 30 -1 60q4 10 15 25.5t26 15.5h428q14 4 23 5t24 1q23 0 40 -13t17 -36q0 -25 -6 -47.5t-6 -46.5q0 -29 6 -53.5t6 -53.5q0 -35 -37 -47h-110q-29 -2 -58.5 -14t-29.5 -47v-225 q0 -35 30.5 -47.5t57.5 -14.5q6 0 21.5 -1t31.5 -2t30.5 -2t20.5 -1q16 -4 26.5 -14.5t10.5 -26.5q0 -25 -8 -47.5t-8 -48.5q0 -27 6 -50.5t6 -48.5q0 -18 -10.5 -28t-26.5 -17q-25 2 -54.5 3.5t-57 -4t-48 -20.5t-28.5 -46q0 -27 -2 -95.5t-5.5 -146.5t-5.5 -146.5 t-2 -94.5v-9q0 -16 2 -33.5t2 -35.5q0 -57 -57 -58q-29 0 -54.5 3t-53.5 3q-29 0 -56.5 -3t-56.5 -3q-23 0 -39 14.5t-16 37.5q0 18 3 36.5t3 36.5q0 106 -5.5 213t-5.5 213zM78 461q2 -6 3 -27.5t1 -30.5q0 -16 1 -55t2 -84t2 -85t1 -56q10 -37 36 -47t60 -10q41 0 74 10 t43 53q6 74 6 158v157v199q-4 14 -14 27.5t-21.5 24t-19.5 19.5t-8 13q0 6 12 16.5t27.5 21.5t30 18.5t18.5 7.5q16 0 28.5 -13.5t28.5 -19.5q18 -6 27 -6h30q45 0 73 21.5t28 70.5q0 31 -14.5 54.5t-43.5 31.5h-38q-39 0 -62.5 -8.5t-50.5 -38.5h-8q-6 0 -16.5 8 t-19.5 19.5t-16.5 23.5t-7.5 20q0 23 18.5 41.5t18.5 42.5v267q-4 20 -5 33.5t-1 31.5q0 4 1 15.5t4 22.5t9.5 19.5t16.5 6.5q16 -2 25.5 -9.5t19.5 -15.5t24.5 -16.5t40.5 -10.5h19q86 0 86 86q0 14 -2 33t-9.5 35t-19.5 27.5t-33 11.5h-338q-20 0 -33.5 -10.5t-20.5 -26.5 t-10 -34.5t-3 -33.5v-1009z" />
<glyph unicode="G" horiz-adv-x="772" d="M20 334v248v247q0 27 1.5 95.5t2.5 144.5t2 144.5t1 95.5q4 61 11 110t23 109q10 35 23.5 55.5t33 32.5t45 19t60.5 14q10 2 39 6t35 4h61q39 0 86.5 -1t93.5 -10.5t87 -29t67 -53.5q14 -16 21.5 -45t11.5 -50q10 -74 15 -150.5t5 -152.5q0 -23 -14 -40t-37 -17 q-18 0 -36.5 5t-36.5 7h-13h-20h-21h-10q-6 0 -17.5 1t-23.5 1t-22.5 1t-14.5 1q-16 2 -31.5 14.5t-15.5 28.5q0 14 3 26.5t3 25.5q0 8 -3 25.5t-9 33.5t-16.5 28.5t-22.5 12.5q-16 0 -23.5 -14.5t-11.5 -33t-4 -36.5v-27q0 -49 1 -100t5 -98q0 -18 2 -39t10.5 -39.5 t22.5 -30.5t39 -12h277q12 0 26 -16.5t14 -28.5q-1 -30 -1 -60v-30q1 -45 6 -88v-475l-11 -130q-2 -23 -18 -36t-39 -17q-72 -10 -135.5 -15t-134.5 -5h-6q-12 0 -35 2t-45.5 4t-40 3t-19.5 1q-74 8 -120 35.5t-72.5 73t-37.5 102.5t-16 123zM78 283q0 -4 4 -22.5t6 -24.5 q16 -53 36.5 -99.5t78.5 -62.5q6 -2 19.5 -5t29.5 -8.5t29.5 -8.5t19.5 -5h113h116q51 0 117 6q29 12 43.5 31.5t14.5 54.5q0 63 -6.5 125t-6.5 125q0 51 3 100.5t3 100.5v88q0 31 -2 59.5t-10 50t-27.5 35t-54.5 17.5q-41 4 -75.5 5t-73.5 1q-45 0 -65.5 -18.5t-20.5 -65.5 q0 -51 16 -66.5t36.5 -17.5t37 -4t16.5 -27q0 -4 -3 -26.5t-3 -26.5v-12q0 -41 5 -81t5 -81v-49q0 -8 -2 -40t-2 -44q0 -6 -1 -20.5t-4 -28t-10 -24.5t-20 -11q-16 0 -29.5 9t-29.5 13q-6 0 -26.5 2t-26.5 2q-29 20 -33 58.5t-4 66.5v512q8 82 8 164q0 40 -2 81q-2 46 -2 92 q0 76 6 153q0 8 2 20.5t7 24.5t13.5 20.5t20.5 8.5h88q12 0 21.5 -11.5t14.5 -26t8 -28.5t3 -23q0 -23 -3 -45t-3 -45q0 -84 88 -84q39 0 75 8.5t46 49.5q0 8 1 34.5t1 34.5q0 12 -1 38t-1 30q0 6 -1 21.5t-1 33.5t-1 35.5t-1 24.5q-4 45 -18.5 74.5t-65.5 33.5 q-4 0 -16.5 1t-25.5 2t-26.5 2t-15.5 1q-4 0 -16.5 2t-27.5 3t-28.5 3.5t-15.5 2.5h-62h-53q-2 0 -17.5 -3.5t-37 -7.5t-43 -9t-33.5 -7q-51 -12 -61 -68q0 -2 -2 -12t-4.5 -21.5t-3.5 -21.5t-1 -12q-2 -6 -5 -19.5t-8 -28t-8 -27.5t-5 -19v-1063zM344 371q0 -18 11.5 -36 t31.5 -18q16 0 24.5 14.5t12.5 34t4 37.5v29q0 45 -1 77t-5 81q-2 10 -12.5 28.5t-24.5 18.5q-16 0 -28.5 -18.5t-12.5 -34.5v-213z" />
<glyph unicode="H" horiz-adv-x="786" d="M20 739q0 135 3.5 266.5t3.5 266.5v248q-4 16 -5.5 28.5t-1.5 28.5q0 18 9.5 36.5t31.5 20.5q21 -1 41 -1q39 1 78 5q60 8 119 7q6 0 19.5 -4.5t26.5 -10.5t24.5 -14t11.5 -17l-2 -2q-14 -16 -22.5 -27t-12.5 -30q0 -6 -1 -24.5t-1 -22.5q0 -80 4 -160t8 -157 q0 -4 1 -16.5t2 -28t3 -30t5 -20.5q2 -14 8 -33.5t22 -19.5q14 0 22.5 11.5t12.5 25.5t5 29.5t1 23.5q0 10 1 35t2 53.5t2 53t1 34.5v121v119q-4 10 -20 32.5t-16 30.5q0 10 9 16.5t22.5 9.5t25.5 4t18 1q31 0 60.5 -3t60.5 -3q27 0 52.5 6t54.5 6q23 0 37 -18.5t14 -40.5 q0 -18 -3 -35.5t-3 -36.5q0 -160 6 -317.5t6 -317.5q0 -184 -6 -366.5t-6 -368.5v-10q2 -4 4 -27.5t2 -27.5q0 -23 -15.5 -43.5t-39.5 -20.5h-3q-8 2 -35.5 7t-37.5 9h-156q-12 0 -39.5 10.5t-32.5 24.5q0 2 6.5 12.5t13.5 23.5t14 27.5t7 24.5q0 106 -5 215t-5 213 q0 6 -2 23.5t-6 34t-11 30t-20 13.5q-18 0 -25.5 -22.5t-9.5 -37.5q-14 -117 -17 -233.5t-3 -233.5q0 -27 18.5 -51t18.5 -35q0 -6 -9.5 -13t-20.5 -11t-22.5 -7t-15.5 -3q-22 -1 -45 -1t-46 1h-20q-36 0 -71 -5q-4 -2 -23.5 -8t-23.5 -8h-8q-18 0 -28.5 15.5t-14.5 31.5 q1 54 1 107q0 120 -4 237q-4 170 -4 344zM78 129q0 -31 22.5 -44t49.5 -13q25 0 49 1t45.5 9t36 25.5t16.5 48.5q0 12 -1 43.5t-1 66.5q0 37 1 69t1 44q0 4 1 23.5t3 41t4 41t2 25.5v27q0 33 1 67v6q0 32 -11 60q-8 18 -25.5 33.5t-17.5 35.5q0 8 10 20.5t21.5 26t21.5 31 t10 35.5q0 29 -13 53.5t-13 52.5v15q2 4 8 28.5t8 28.5q4 23 5 66t1 73q0 6 -1 18.5t-1 14.5q0 4 -2 22.5t-5 40t-5 40t-2 22.5q0 10 -1 36t-1 54q0 29 1 55.5t1 36.5q-6 35 -23.5 56.5t-56.5 21.5q-14 0 -37.5 -1t-46 -7t-39 -19.5t-16.5 -35.5v-1395zM332 844 q0 -23 17.5 -46.5t39.5 -23.5q29 0 39 25.5t10 48.5t-10 45t-39 22q-23 0 -40 -24t-17 -47zM473 852q0 -33 18.5 -58.5t18.5 -56.5q0 -23 -12.5 -44t-18.5 -44q0 -6 -1 -30.5t-1 -30.5q0 -120 4 -234q3 -76 3 -155q0 -40 -1 -80q16 -37 43 -47.5t68 -10.5q14 0 32.5 2.5 t36 8.5t28.5 18t11 33v512q6 45 7 100v96v156q0 31 -1 105.5t-2 158.5t-2.5 159t-1.5 103q-6 43 -36.5 55.5t-69.5 12.5q-37 0 -69.5 -10t-43.5 -51v-95q0 -53 3 -104t3 -102q0 -43 -6 -85t-6 -85q0 -25 6 -47.5t6 -47.5q0 -29 -8 -52t-8 -50z" />
<glyph unicode="I" horiz-adv-x="385" d="M20 381q0 244 3.5 484.5t3.5 484.5q0 12 2 42.5t4 64.5t5 63.5t3 42.5q2 18 10 40.5t35 22.5q29 0 55.5 -6t63.5 -6q35 0 63.5 6t59.5 6q18 0 27.5 -16.5t9.5 -32.5q0 -23 -3.5 -42t-3.5 -42q0 -100 3.5 -200.5t3.5 -202.5q0 -219 -4.5 -438.5t-8.5 -440.5q-4 -41 -5 -83 v-28q0 -28 1 -55q-10 -31 -43 -31q-31 0 -60.5 5.5t-62.5 5.5q-29 0 -55.5 -3.5t-54.5 -3.5q-18 0 -28.5 10.5t-16.5 26.5q1 25 1 50q0 57 -4 113q-4 81 -4 163zM72 285q0 -10 1 -34t2 -49.5t2 -50t1 -32.5q4 -16 18.5 -31.5t32.5 -15.5h121q29 0 43 30.5t14 53.5 q0 78 -3 152.5t-3 152.5q0 154 3 303t3 303q0 51 -3 101.5t-3 101.5q0 53 5 103t5 104v45q-6 18 -21.5 32.5t-35.5 14.5h-115q-18 0 -29.5 -18.5t-15.5 -34.5q0 -10 -2 -39t-4 -60t-4 -59.5t-2 -38.5v-41q0 -76 3 -150.5t3 -152.5q0 -154 -8 -307.5t-8 -307.5v-75z" />
<glyph unicode="J" horiz-adv-x="729" d="M20 502v10q0 14 10.5 35.5t26.5 21.5h197q16 -4 25.5 -5t21.5 -1q23 0 45.5 12.5t22.5 38.5v932q0 4 -2 18.5t-2 18.5v6q0 18 14 34.5t35 16.5h8q6 -2 30.5 -7t30.5 -9h179q10 0 20 -8t14 -17q-1 -73 -1 -145q0 -154 5 -306q9 -224 9 -450v-30v-35q0 -16 -2 -43 q0 -8 -2.5 -46t-4.5 -84l-4 -92t-4 -71q-6 -84 -22.5 -141.5t-51 -93t-89 -51t-136.5 -15.5h-4q-16 0 -40.5 2t-49.5 4t-59 4q-23 4 -61 12.5t-60 24.5q-27 20 -44.5 52t-27.5 68t-15 72.5t-5 67.5q0 2 -1 26.5t-2 56.5t-2.5 64.5t-1.5 51.5zM78 403q0 -33 3 -88t16.5 -108 t42 -95t79.5 -49q12 -2 34.5 -4t46.5 -5t43 -5t26 -2h41q23 0 51 -1t56 3t49.5 16.5t31.5 38.5q0 2 4 13.5t8 24t8.5 23.5t6.5 17q0 4 2 11.5t2 11.5q16 129 21 256t5 256v57q0 25 -4 66q0 20 -1 64t-2 100.5t-1 117.5t-1 117.5t-1 99.5v68v104q0 25 -11 39.5t-28.5 21.5 t-38 9t-41.5 2h-47q-33 -8 -48 -30.5t-15 -57.5v-10q0 -6 2 -26.5t4 -44t3 -44t1 -27.5q0 -4 1 -47t2 -101t2 -118.5t1 -97.5v-18v-23q0 -31 -1 -105.5t-2 -159.5t-2 -160t-1 -105q0 -10 -2 -32t-5 -46.5t-5 -47t-2 -30.5q-4 -23 -14.5 -48.5t-39.5 -25.5q-16 0 -27.5 15.5 t-13.5 31.5q0 6 -2 21.5t-4 32t-3 31t-1 20.5q0 8 -1 27.5t-2 42t-2 42t-1 27.5q-6 41 -37 49t-65 8q-41 0 -76 -8t-45 -53v-62z" />
<glyph unicode="K" horiz-adv-x="772" d="M20 51v371q0 248 5.5 494.5t5.5 494.5v121q-6 18 -8.5 31.5t-2.5 29.5q0 23 14.5 33t35.5 10h18q74 -10 149.5 -18t149.5 -8q66 0 132.5 8t131.5 8h37q20 -8 21 -31v-16q0 -4 -7.5 -23.5t-9.5 -23.5q0 -6 -2 -19.5t-3 -28t-3 -27.5t-2 -19l-109 -422q-8 -31 -9 -60.5 t-1 -60.5q0 -43 4 -84t17 -82l135 -455q10 -35 11 -68.5t5 -70.5q2 -18 9.5 -35.5t7.5 -36.5q0 -23 -19.5 -34t-40.5 -11q-4 0 -11 1t-9 1q-10 0 -38 1.5t-59 1.5t-58.5 1t-37.5 1q-20 2 -38.5 9t-39.5 7q-18 0 -32.5 -5t-34.5 -16h-215q-16 -4 -25.5 -5t-23.5 -1 q-35 0 -50 37zM72 145q0 -51 33.5 -67.5t78.5 -16.5q12 0 33 1t39 7.5t31.5 17.5t13.5 32v381q0 6 -2 24.5t-3 38t-3 37.5t-2 25q0 4 2 23.5t4 27.5q0 4 2 15t10 11h4q8 -14 14.5 -33.5t10.5 -33.5t11 -41t13.5 -53.5t12.5 -47t6 -24.5q12 -66 18.5 -125t28.5 -121 q6 -16 21.5 -27.5t25.5 -29.5q12 -31 19.5 -50.5t19.5 -30.5t32.5 -15t55.5 -4h39q43 14 43 57q0 4 -2 16q0 2 -2 11.5t-5 20.5t-5 20.5t-2 11.5q-8 35 -11.5 63.5t-15.5 61.5q0 2 -4 11t-9 19.5t-9.5 19.5t-4.5 11q0 4 -4 21.5t-8 37t-8 36t-4 20.5q-2 4 -5 16t-7 17 q-4 8 -15.5 37.5t-15.5 39.5q-16 68 -33.5 139.5t-17.5 143.5q0 63 15 118.5t32 114.5q0 2 2 15.5t5 27t5 25.5t2 16q8 29 21.5 54.5t21.5 54.5t8 57q0 29 6 58q0 2 4.5 14t7.5 24.5t6 23.5t3 13.5t1 5.5t1 5q0 41 -35 51t-65 10q-63 0 -87 -25.5t-28 -84.5 q-4 -14 -12.5 -51.5t-18.5 -79t-19.5 -78.5t-13.5 -52q-4 -16 -13 -44.5t-11 -49.5q0 -4 -2 -22.5t-4 -40t-3 -40t-1 -22.5t-2.5 -15t-4.5 -23.5t-6 -21.5t-8 -9q-8 0 -13 16t-7 36.5t-2 41.5v27v30q2 16 7 55t10 83.5t9 83t6 55.5v84v84q-4 23 -21.5 35t-39 18t-44 7 t-40.5 1q-29 0 -48.5 -12t-25.5 -39v-94q0 -53 -1 -133t-2 -156t-2 -130t-1 -56l-10 -115q1 -61 1 -121q0 -119 -3 -233q-4 -170 -4 -349zM348 129q0 -23 12.5 -43t36.5 -20q25 0 33 24.5t8 42.5v23q0 14 -3 27.5t-9 23.5t-18 10q-33 0 -46.5 -31.5t-13.5 -56.5z" />
<glyph unicode="L" horiz-adv-x="657" d="M20 324v233q0 131 5.5 260t5.5 258q0 123 -5.5 246t-5.5 246q0 14 9.5 36.5t27.5 22.5h176q23 0 43.5 8t42.5 8q18 0 29.5 -13t11.5 -30q0 -111 -6 -217t-6 -217q0 -98 6 -194.5t6 -194.5q0 -66 -3 -130t-3 -130v-80q0 -33 6 -76q2 -27 19.5 -40t41 -19t48.5 -7t41 -1 q10 -2 39 -2q31 0 41 2q18 -2 27.5 -16.5t9.5 -30.5q0 -23 -6.5 -44.5t-6.5 -43.5q0 -29 11.5 -52.5t11.5 -48.5q0 -18 -19.5 -32.5t-35.5 -14.5q-20 0 -40 3t-40 3q-92 0 -181.5 -1t-179.5 -5q-2 0 -11 -2t-18.5 -3t-17.5 -3t-10 -2q-23 -2 -41 16.5t-18 38.5q0 16 3 33.5 t3 36.5q0 51 -3 95t-8 104zM68 1470q0 -4 3 -23.5t5 -41t5 -40.5t3 -26q0 -6 1 -33.5t1 -64.5q0 -35 1 -70.5t1 -54.5v-96v-76q0 -6 -1 -22.5t-3 -35t-4 -34.5t-2 -23v-610l10 -110q4 -35 28.5 -46.5t53.5 -11.5q31 0 60.5 8.5t60.5 8.5h219q35 0 57.5 27.5t22.5 60.5 q0 27 -19.5 58.5t-50.5 31.5h-114q-25 0 -40.5 -18.5t-37.5 -18.5q-20 0 -28.5 23.5t-8.5 39.5q0 20 6 39t6 41q0 37 -6 74t-6 76q0 84 6 166t6 166q0 102 -6 201.5t-6 201.5q0 68 3 135.5t3 134.5v31q-10 27 -27.5 35t-44.5 8q-29 0 -56.5 -2t-50 -11t-36.5 -28.5 t-14 -56.5v-13z" />
<glyph unicode="M" horiz-adv-x="1062" d="M18 1040v82v64t1 81t1 70v37l11 209q2 16 16 26.5t25 14.5q23 -1 45 -1q45 0 89 3q66 4 132 4h18h29q14 0 27.5 -1t19.5 -1q8 -2 27.5 -12t19.5 -23q0 -20 -10 -37.5t-10 -37.5v-9l51 -411q2 -8 6 -17.5t14 -9.5t14.5 10.5t6.5 16.5q4 6 7 24.5t3 22.5l43 354v12 q0 23 -11 41.5t-11 40.5q0 18 18 27.5t35 13.5q37 2 67.5 3t59.5 2t57 1h68h112q16 -8 26.5 -18t10.5 -31q0 -12 -1 -22t-5 -23v-254q0 -180 6 -359t6 -360q0 -113 -3 -223t-3 -223q0 -16 3 -32.5t3 -33.5q0 -23 -12 -40t-35 -17q-16 0 -28.5 3t-28.5 7h-152q-2 0 -11 2 t-20.5 3t-20.5 3.5t-11 2.5h-8q-49 0 -97.5 -5.5t-95.5 -5.5q-41 0 -83 3t-85 3q-25 0 -47 -6t-47 -6q-23 0 -46.5 6t-45.5 6q-23 0 -42.5 -3t-39.5 -3q-23 0 -32 9.5t-17 27.5q-2 27 -3 85.5t-3 131t-3 153.5t-3 153.5t-3.5 130t-1.5 86.5v51t-1 95t-1 103zM78 557 q0 -219 6 -438q25 -57 84 -58q14 0 30.5 4.5t32 12.5t25.5 20.5t10 30.5v354l-12 105v168v243q0 4 1 20.5t2 35l2 37t1 26.5t2 32t8 36q4 -6 6.5 -14.5t4.5 -16.5q2 -10 5 -37.5t6 -58.5t6 -58.5t3 -37.5q0 -6 1 -27t2 -44.5t2 -44t1 -26.5t5 -37.5t10.5 -71.5t11.5 -80 t10 -61q0 -4 2 -15t5 -23.5t5 -24.5t2 -14q8 -43 9.5 -84t7.5 -88q0 -4 2 -15.5t5 -26t6 -26.5t3 -16q0 -6 1 -22.5t1 -37.5q0 -18 1 -35.5t1 -23.5q8 -18 24.5 -34.5t39.5 -16.5h145q25 0 45.5 22.5t22.5 44.5v135q2 41 14 82t16 84q8 106 12.5 214t14.5 214q0 4 3 22.5 t6 40t7.5 40t4.5 22.5q0 6 2 33t3 57.5t3 58t2 33.5q0 8 3 23.5t5 30t5 26t3 13.5l4 12q10 -6 13.5 -26.5t3.5 -26.5v-80v-72t-7 -72v-522q-4 -37 -4 -69v-70v-64q0 -4 2.5 -15t3.5 -23.5t3 -24.5t2 -14q2 -31 5 -56.5t12 -46t27.5 -32t53.5 -11.5t57.5 13.5t30.5 48.5 q2 6 2 24v23q0 210 -4 416q-3 137 -3 277q0 70 1 140q0 6 -1 22.5t-2 35t-2 35t-1 22.5v422q-4 20 -18.5 38.5t-39.5 18.5h-213q-29 0 -40 -26.5t-14 -62.5q-2 -27 -2 -52v-16q1 -32 -1 -46q-2 -6 -5 -23.5t-7 -36.5t-8 -36.5t-7 -23.5q-4 -23 -10 -77t-13 -115.5 t-13.5 -116t-8.5 -76.5q-2 -12 -5 -62.5t-6 -107t-6 -106.5t-5 -62q0 -20 -5 -58.5t-26 -50.5q-6 2 -8 12.5t-2 12.5l-31 516q-2 27 -14 50.5t-16 47.5q-6 27 -7 37v41q0 35 3.5 69.5t3.5 69.5q0 33 -12.5 60.5t-20.5 56.5q-6 25 -6 51q0 27 -3.5 51.5t-15.5 43t-43 26.5 h-61q-29 0 -59.5 2t-59.5 -2t-53.5 -17.5t-36.5 -43.5v-521v-438z" />
<glyph unicode="N" horiz-adv-x="823" d="M20 932q0 147 3.5 291.5t3.5 292.5q0 18 -3.5 35.5t-3.5 37.5v25q6 16 19.5 24.5t30.5 8.5q18 0 30.5 -3.5t34.5 -9.5h271q27 -12 53 -12q5 0 11 1q19 2 40 2q13 0 27 -1q4 0 25.5 -2t25.5 -2h49q27 0 50.5 5t49.5 5q23 0 33 -11t13 -28.5t3 -38.5v-32q0 -10 2.5 -35 t5.5 -53.5t5 -53t2 -35.5q0 -23 1 -79t1 -119v-119v-78v-104v-127q0 -63 -1 -111.5t-1 -54.5q-1 -135 -7 -250q-4 -79 -4 -164q0 -39 1 -80q-4 -18 -15.5 -32.5t-34.5 -14.5h-8q-8 2 -33.5 5t-33.5 5h-254q-18 0 -34 11.5t-34 11.5q-16 0 -26.5 -4t-26.5 -10h-162 q-6 -4 -29.5 -10.5t-31.5 -8.5h-7q-22 0 -30 27q0 8 -1 28.5t-2 43t-1 43.5v30q-4 186 -5.5 374.5t-1.5 375.5zM78 150q0 -37 17.5 -59.5t58.5 -22.5t68.5 11t43.5 50v74q0 125 -2 250t-10 249q0 4 -1 22.5t-3 38t-4 38t-2 22.5v80q0 20 -1 52q0 16 -0.5 32.5t0.5 32.5 q1 33 4 63.5t13 51.5q10 -4 17.5 -41t11.5 -81t7 -82t5 -46q2 -6 10 -36t16.5 -62.5t16.5 -62.5t10 -36q0 -4 2 -18.5t2 -18.5q0 -12 2 -45t4.5 -67.5t3.5 -67.5t1 -45q6 -35 19 -68q14 -32 24 -67q10 -32 9 -65v-6v-24q0 -25 1 -51q4 -23 21.5 -47t45.5 -24h193q25 0 37 16 t20 35v39q0 47 -3 91t-3 91q0 82 8.5 163t8.5 163q0 354 -7 708q0 39 1 75v7q0 32 -8 58q-9 28 -31.5 45.5t-69.5 17.5q-51 0 -81 -24.5t-30 -77.5q0 -4 1 -14.5t1 -14.5q2 -16 5.5 -58t7.5 -89.5t8 -90.5t4 -59q0 -2 1 -21.5t1 -29.5q0 -49 -6 -97.5t-6 -95.5 q0 -53 13 -105t13 -106q0 -43 -3 -85t-3 -85q0 -37 3 -71.5t3 -71.5q0 -18 -2 -20t-4 -2h-2q-6 0 -10 8t-8 19t-7.5 20.5t-3.5 13.5q0 6 -2 22.5t-2 20.5q0 6 -1 26.5t-2 45t-2 46t-1 27.5q-2 39 -9 63.5t-17 67.5q-14 74 -18.5 140.5t-6.5 144.5q-4 29 -16.5 53.5 t-16.5 51.5q-8 51 -16 96t-25 92l-10 203q-2 29 -26.5 48t-51.5 19h-151q-25 0 -51.5 -16t-26.5 -45v-959q4 -35 5 -63.5t1 -63.5q0 -74 -3 -148t-3 -148zM297 145q0 -20 13.5 -46.5t35.5 -26.5q25 0 35 21.5t10 41.5q0 12 -4 32.5t-10 42t-16.5 40t-22.5 26.5l-10 -10 q-2 -2 -9.5 -26.5t-11.5 -36.5q-2 -4 -5 -23.5t-5 -27.5v-7zM436 1511q0 -23 4 -55.5t23 -44.5l6 6q2 6 7 27.5t7 30.5q2 2 6.5 14t4.5 16v2q0 12 -8.5 30.5t-24.5 18.5q-18 0 -21.5 -16.5t-3.5 -28.5z" />
<glyph unicode="O" horiz-adv-x="792" d="M20 844v69q0 27 3.5 93.5t6.5 141.5t6 141.5t5 92.5q4 35 8 76t19 76q16 43 51 69.5t78 41t89 19.5t87 5t75.5 -2t77.5 -8q47 -6 78 -19.5t51.5 -35t35 -52t28.5 -75.5q10 -37 17 -69t14 -73q2 -20 6 -69t7 -104.5t5 -105.5t2 -69q0 -2 1 -20.5t1 -42.5v-52v-38 q0 -145 -5 -286.5t-28 -285.5q0 -2 -3 -15.5t-7 -29.5t-9 -33.5t-7 -25.5q-16 -61 -39 -94t-56.5 -48.5t-78.5 -17.5t-105 -2h-33q-47 2 -98 4t-96 14.5t-80 40t-49 82.5q-49 174 -53.5 350.5t-4.5 356.5zM78 809q0 -23 1 -77t2 -115.5t2 -117t1 -75.5q4 -74 20.5 -146.5 t24.5 -146.5q12 -41 54 -59.5t83 -18.5h301q25 0 43.5 21.5t31.5 51.5t20.5 58.5t9.5 40.5q2 10 6 32t8 43.5t8 38.5t4 21q0 6 2 24.5t2 23.5q2 20 3.5 60t3.5 82t3 75.5t1 42.5q0 4 1 33.5t1 68.5v78v65v50v73q0 39 -1 74t-1 47q0 8 -1 26.5t-3 40t-4.5 40t-2.5 24.5 q0 4 -2 13.5t-2 13.5q0 2 -4 14t-9 24.5t-9 24t-4 15.5t-2 11t-2 9q-6 31 -6 64t-11 61q-12 37 -41.5 52.5t-66.5 20.5q-26 4 -53 4q-11 0 -22 -1q-38 -2 -65 -2h-102q-43 -8 -82 -19.5t-67.5 -32t-45 -53t-16.5 -84.5v-354q-12 -59 -12 -121v-119v-20zM301 705 q0 82 6 161.5t6 161.5q0 53 -3 104.5t-3 104.5v109q4 23 9.5 37t14.5 21t23.5 11t36.5 8q16 4 29.5 10.5t30.5 6.5q23 0 39 -16.5t16 -39.5q0 -18 -3 -30.5t-14 -34.5v-68q0 -41 3.5 -79.5t3.5 -79.5q0 -53 -11.5 -103.5t-11.5 -103.5q0 -90 6 -177t6 -178v-28v-41 q0 -20 -1 -41t-1 -29q0 -20 -6 -58t-18.5 -76t-31.5 -66.5t-46 -28.5q-23 0 -33 16.5t-14 39t-4 44.5q0 25 -2 37q-14 102 -20.5 202t-6.5 204zM354 465q2 -25 6.5 -45.5t10.5 -42.5q2 -10 7 -26.5t17 -16.5q8 0 15.5 13t12.5 29.5t7 34t2 23.5v490q6 43 6 90v90v110 q-2 10 -3 36t-3 34q-2 14 -10 30.5t-27 16.5q-16 0 -26.5 -19.5t-10.5 -33.5v-391q0 -8 -2 -36t-2 -36v-176v-174z" />
<glyph unicode="P" horiz-adv-x="729" d="M20 152v1447q0 16 21.5 26.5t32.5 10.5q14 0 24.5 -1t26.5 -5q12 0 46 1t71 1t70.5 -1t45.5 -1q6 0 25.5 -2t42.5 -5t43 -5t31 -4q25 -4 50 -9.5t48 -16.5t40 -28.5t24 -43.5q27 -109 37 -218.5t10 -220.5q0 -47 -2 -105.5t-16.5 -115.5t-43.5 -104t-80 -70q-6 -2 -19 -5 t-18 -5q-4 0 -22.5 -2t-37.5 -4t-36.5 -5.5t-21.5 -3.5q-23 -4 -35 -14t-18.5 -25.5t-8.5 -34t-2 -36.5q0 -8 -1 -26.5t-2 -39t-1 -37.5v-22v-21q0 -18 -1 -40.5t-1 -47.5v-39v-30q0 -20 1 -44t1 -44v-29q6 -20 8 -31.5t2 -29.5q0 -14 -7 -28.5t-25 -14.5l-193 -11 q-16 -2 -30.5 -9t-30.5 -7q-14 0 -27.5 10t-13.5 27zM78 127q4 -20 16 -38.5t35 -18.5h100q23 0 35 18t17 39q-1 30 -1 59q0 88 5 172q6 112 6 230q0 16 -6 29.5t-12.5 24.5t-12.5 22.5t-6 25.5q0 18 18.5 35.5t24.5 40.5q0 20 -1 60t-1 92v108v109q0 51 1 91t1 60 q0 6 1 24.5t1 37.5q0 20 1 38.5t1 24.5q2 10 8 28.5t23 18.5q33 0 52 -40t28.5 -91t11.5 -100t2 -68q0 -68 -1 -137.5t-19 -134.5q-10 -31 -29 -56.5t-19 -58.5q0 -23 7.5 -34t29.5 -19q41 -2 77 -3t77 -1q29 0 48 8t28 39q2 10 6 38.5t8 61.5t8 61.5t4 41.5v127v133 q0 6 -3 30.5t-6 54t-7 58.5t-6 43q-4 23 -8.5 47.5t-14.5 45t-26.5 34.5t-42.5 18q-12 2 -42 6.5t-64 7.5t-62.5 6t-40.5 3h-99h-100q-20 -4 -35.5 -20.5t-15.5 -36.5v-840q4 -41 5 -65.5t1 -61.5q0 -68 -3 -134.5t-3 -133.5v-160z" />
<glyph unicode="Q" horiz-adv-x="870" d="M20 797v247v248q0 6 2.5 23.5t3.5 37t3 36t2 22.5q6 61 23.5 89t64.5 63q16 12 18 22t15 31q16 25 54 33t64 8h80q143 0 275 -27q47 -10 67 -47q51 -145 61.5 -289.5t12.5 -298.5v-411q0 -4 1 -17.5t1 -29.5t1 -29.5t1 -18.5q0 -10 1 -33.5t1 -52.5q0 -27 -1 -51t-1 -35 q4 -16 16.5 -27t24.5 -22.5t22.5 -24t10.5 -28.5v-12q0 -2 -2 -10.5t-3 -17.5t-3 -18.5t-2 -11.5q-2 -23 7 -44t9 -44t-14.5 -33t-32.5 -18q-12 -2 -40 -4t-59.5 -5t-60.5 -5t-39 -2h-125h-145q-4 0 -28.5 2t-35.5 4q-12 0 -32.5 2t-40 8t-32.5 18.5t-13 30.5q66 0 130 -7 t130 -7h88q12 0 41.5 2t62.5 3t62.5 3t42.5 4q35 4 64.5 24.5t29.5 61.5q0 35 -23.5 47.5t-51.5 16.5t-50.5 8t-22.5 27t17.5 36t25.5 33q14 45 17.5 90t3.5 92q0 49 -8.5 96.5t-8.5 96.5q0 78 3.5 157t3.5 156v146q0 12 -2 42.5t-3.5 66.5t-3.5 67t-2 43q-4 27 -13 47 t-19 47q-8 23 -13.5 44.5t-13.5 39.5t-22.5 31.5t-38.5 19.5q-12 0 -41 3t-63 5t-63.5 5.5t-41.5 3.5h-50q-20 0 -45.5 -1t-52 -6.5t-48 -17.5t-32.5 -33q-18 -37 -36.5 -73.5t-26.5 -77.5v-121q0 -59 3 -116.5t3 -117.5q0 -53 -3 -107t-3 -108v-88t16 -88v-438 q6 -25 10.5 -44t4.5 -42v-14q0 -8 -11 -9q-10 0 -16 7.5t-11 17.5t-8.5 20.5l-5.5 16.5q-8 29 -13 60.5t-7 60t-4 101.5t-5 154t-5.5 153.5t-2.5 101.5zM297 1360v16q0 18 12.5 34.5t34.5 16.5h115q8 0 12 -9t7 -21.5t4 -23.5t1 -13q0 -6 1 -19.5l2 -27t2 -25.5t1 -16v-66 v-63q0 -29 -6 -64v-176q0 -123 3 -247t3 -248q0 -23 -3 -45.5t-3 -45.5v-4q0 -2 2 -11t4.5 -20.5t3.5 -20.5t1 -11l2 -2q0 -10 -11.5 -20.5t-21.5 -14.5q-31 0 -58.5 -5t-56.5 -5t-38 24t-9 49q0 182 6 361.5t6 359.5v56v67q0 35 -1 59.5t-1 28.5v21q0 16 -1 33.5t-2 32 t-1 18.5t-5 23.5t-5 23.5zM354 1143q0 -55 8.5 -110.5t8.5 -112.5q0 -37 -2 -61.5t-11 -65.5v-402q0 -6 1 -20.5t6.5 -28.5t12.5 -24.5t19 -10.5q18 0 26.5 21.5t8.5 36.5v428q-8 41 -9 65.5t-1 59.5q0 70 8 138t8 140v90q-4 16 -11 32.5t-26 16.5q-18 0 -25 -16t-11 -33 q0 -8 -2.5 -27.5t-3.5 -42t-3 -42t-2 -27.5v-4z" />
<glyph unicode="R" horiz-adv-x="759" d="M20 72q0 12 1.5 23t5.5 24q-1 140 -1 279q0 208 2 414q3 343 3 693q0 18 -3 37t-3 39q0 53 51 53q18 0 36.5 -3t37.5 -3q41 0 81.5 3t81.5 3q61 0 125 -3t123 -19q10 -2 42 -12.5t42 -14.5q31 -10 48.5 -34.5t26.5 -55.5t11 -63.5t2 -59.5v-368q-2 -6 -4 -23.5t-5 -37 t-5 -36t-2 -22.5v-49v-52q0 -10 3 -38.5t6 -59.5t6 -59.5t5 -38.5v-365q-2 -27 -3 -46t-1 -42q0 -18 3 -35.5t3 -36.5q0 -18 -11 -35.5t-34 -17.5h-8q-4 2 -22.5 5t-24.5 5q-12 0 -45 3.5t-70 5.5t-69.5 5t-44.5 3h-19h-16q-2 0 -11.5 -2t-20.5 -4t-20.5 -3t-11.5 -1 q-10 0 -37.5 -1t-58.5 -2t-58.5 -2.5t-37.5 -1.5q-10 -4 -21.5 -5t-23.5 -1q-53 0 -54 58zM78 125q16 -63 80 -64q25 0 48 2.5t43.5 11.5t34 25.5t17.5 44.5v183v172t-4 172q-4 8 -11 35.5t-12 35.5v2v5q0 2 4.5 11t7.5 19.5t7 19.5t4 11q0 4 4 20v541q0 12 5 36t24 24 q16 0 27.5 -14.5t27.5 -18.5t30.5 -6t25 -7.5t16.5 -15.5t6 -31q0 -16 -1 -27.5t-5 -27.5q0 -14 -1 -49t-1 -76q0 -39 -1 -74.5t-1 -50.5q-2 -23 -4.5 -49.5t-12.5 -49t-23.5 -29.5t-25.5 -12t-20.5 -15.5t-8.5 -36.5q0 -33 12.5 -41t28 -14.5t29.5 -19.5t18 -54 q2 -12 3.5 -36t3.5 -47.5t3 -42t1 -20.5v-438q0 -23 13 -35t31.5 -18t38 -7t33.5 -1q49 0 84 17t35 73v18q0 20 -1 74.5t-2 114t-2 112.5t-1 74q0 6 -1 22.5t-3 35t-4 34.5t-2 23q0 2 -2 12t-5 24.5t-7.5 28.5t-6.5 23q-4 16 -16 30.5t-24.5 25.5t-22.5 19.5t-10 12.5 q0 12 23.5 28.5t29.5 24.5q12 18 26.5 51t14.5 58v462q0 12 -8.5 23.5t-18.5 17.5q-45 25 -92 46.5t-100 21.5h-322q-23 0 -36 -17.5t-17 -33.5v-70q0 -127 3 -251t3 -249q0 -61 -5 -120.5t-5 -120.5q0 -47 3 -95.5t3 -95.5q0 -86 -3 -171t-3 -171v-55zM348 154q0 -18 6 -37 t29 -19q18 0 28.5 16.5t10.5 32.5v5q0 2 -2 11t-4 19.5t-4 19.5t-2 11q0 8 -2 25.5t-3.5 36t-3.5 34t-2 19.5v172q-4 14 -7 32.5t-13 34.5q-8 -16 -12.5 -34.5t-8.5 -32.5q0 -18 -2 -64.5t-3 -97.5t-3 -97t-2 -65v-22z" />
<glyph unicode="S" horiz-adv-x="735" d="M20 330q0 55 1.5 94t5.5 98q4 18 19 25.5t32 7.5q25 0 48.5 -3t49.5 -3h53q57 12 58 67q0 12 -4 33t-10.5 43.5t-15.5 41t-17 28.5l-152 158q-20 20 -28.5 50.5t-12.5 57.5q-6 59 -11 113.5t-5 111.5v31q0 6 2 24.5t3 40t3 41t2 29.5q0 6 2 21.5t6 30t11.5 25.5t19.5 11 h4q0 -2 2 -5t2 -5v-422q0 -27 10.5 -49t24.5 -42.5t31.5 -39t31.5 -37.5q4 -4 16.5 -22.5t16.5 -22.5q16 -23 35.5 -36t36.5 -33q14 -16 18 -40t15 -42q0 -2 4 -8.5t6 -8.5q33 -41 54.5 -76.5t34.5 -73.5t19 -81t7 -98q0 -16 -1.5 -46t-7.5 -59t-20 -50.5t-39 -21.5 q-37 0 -54.5 24t-23.5 60.5t-7 77.5t-6 78t-19.5 60.5t-47.5 23.5h-88q-18 0 -40.5 -19.5t-22.5 -37.5v-146q0 -4 4 -21.5t8 -25.5q8 -29 14 -46t11 -42q6 -41 13 -74.5t54 -46.5q33 -4 59.5 -6t51 -3t49.5 -1h57h90q41 8 78 27.5t53 60.5q2 6 7.5 21.5t11.5 32t11 30.5 t7 21q2 4 5 20t6 23v81q0 53 -1.5 115t-5.5 111q0 4 -3 22.5t-7 24.5q-4 10 -14 34.5t-21.5 53.5t-21.5 53.5t-14.5 34.5t-5.5 16t-1 19q37 0 61.5 -25.5t40 -60.5t22.5 -75t11 -67q2 -10 3.5 -27.5t3.5 -34.5t3 -31.5t1 -16.5t1 -14.5t1 -28.5v-33v-24q0 -55 -2 -107.5 t-13.5 -99.5t-35 -90t-66.5 -82q-16 -14 -45 -22.5t-61.5 -12.5t-63.5 -5t-51 -1h-12q-10 0 -31 2t-43.5 3t-42 3t-25.5 2q-20 2 -43.5 4t-45 7t-40 17t-26.5 35q-23 78 -35.5 135.5t-12.5 135.5zM178 1606q0 14 10.5 23t25.5 15t30.5 7.5t25.5 1.5q10 2 32 4t26 2h67 q47 0 98.5 -2t94.5 -25q27 -12 46 -39.5t34 -48.5q18 -29 26 -66.5t11.5 -79.5t3.5 -83v-70v-86q0 -6 -7 -12q-4 -6 -24 -29h-141q-16 0 -37 -12t-21 -33q0 -29 14.5 -54.5t22.5 -53.5q0 -4 4 -22.5t6 -22.5q2 -8 9.5 -35t11.5 -35q-2 -4 -8 -4h-11q-23 0 -35 13t-19 32.5 t-12 40t-13 33.5l-54 79q-23 29 -47 51.5t-24 63.5v287q0 16 10 31.5t28 15.5t32 -14.5t23 -35t14 -42t7 -35.5q0 -8 1 -27.5t1 -42.5t1 -42t1 -27q6 -39 30 -49.5t58 -10.5q53 0 90 16.5t37 76.5v14q0 12 -2 14q0 14 -2 51t-4 77t-5 77t-3 51q2 31 -24.5 39t-49.5 12 q-8 2 -23.5 3t-30.5 3.5t-28.5 3.5t-15.5 1h-291z" />
<glyph unicode="T" horiz-adv-x="729" d="M20 1579q0 12 7.5 28.5t23.5 16.5h531q23 4 36 5t31 1q23 0 41.5 -10t18.5 -35q0 -29 -8.5 -53.5t-8.5 -52.5q0 -23 3 -42.5t3 -39.5q0 -37 -22.5 -44t-51 -10.5t-56 -11.5t-38.5 -45q-4 -70 -5 -132t-1 -132q0 -199 3 -395.5t3 -395.5v-174q-6 -23 -20 -38t-39 -15 q-27 0 -51.5 3t-50.5 3q-29 0 -53.5 -5t-53.5 -5q-18 0 -36.5 13.5t-18.5 33.5q1 23 1 48v25q-1 38 -5 73l-10 1097q0 39 -27 47.5t-58.5 10.5t-57 8t-25.5 43q0 23 6 43t6 43q0 25 -8.5 47t-8.5 47zM72 1487q0 -31 16 -58.5t51 -27.5q14 0 26.5 7t23 15.5t21.5 15.5t23 7 q2 0 6.5 -1t4.5 -3l63 -64v-4q-12 -10 -32.5 -30.5t-20.5 -43.5v-759q2 -8 4 -36t2 -36q0 -20 1 -71.5t2 -109t1 -108.5v-71q6 -20 22.5 -41t41.5 -21h84q35 0 49 31t18 57v88v88q0 14 -1 56.5t-2 97.5t-2 118.5t-2 119t-2 96.5t-1 55q-1 52 -1 106t1 110v45q0 89 -6 175 q-2 23 -16.5 42.5t-30.5 31.5v8q0 8 8 18.5t20.5 19.5t24.5 15.5t20 6.5q25 0 44.5 -18.5t46.5 -18.5q37 0 54 27.5t17 60.5q0 68 -57 94h-47q-98 0 -195.5 -3t-195.5 -3q-37 -4 -60.5 -23.5t-23.5 -60.5z" />
<glyph unicode="U" horiz-adv-x="782" d="M20 891v108t7 113v506q0 10 15 21.5t26 9.5l57 -17l188 -14q10 -2 34 -9t24 -20q0 -23 -13.5 -42t-13.5 -44q0 -27 2 -45t8 -49v-627q2 -6 3 -27.5t1 -29.5v-39v-68v-67v-39q2 -6 3 -29.5t4 -33.5q0 -4 4 -26t7 -32q2 -6 5.5 -21.5t13.5 -15.5q8 0 14.5 10.5t8.5 22.5 t3 24.5t1 16.5q0 10 1 35.5t2 54.5t2 53.5t1 34.5v516q0 6 2 31t2 31q0 8 1 42t2 72.5t2 72.5t1 42q0 4 1 17.5t3 28t4.5 27.5t2.5 17v2q0 27 -16.5 46.5t-16.5 39.5q0 18 40 29.5t90 16.5t95 6t55 2q2 0 10.5 -1.5t12.5 -1.5q4 -4 13 -12t13 -18v-99q0 -18 2.5 -64 t5.5 -97.5t5 -97.5t2 -64v-752q0 -2 -2 -25.5t-4 -54t-4 -62.5t-5 -50q-4 -27 -9 -52.5t-11 -52.5q-8 -29 -37 -57q-37 -35 -64.5 -52.5t-56 -25.5t-63.5 -9t-86 -1h-80q-47 2 -85 9t-81 18q-45 10 -73.5 49t-44 90t-21.5 102t-6 86q-4 135 -5.5 270.5t-1.5 270.5zM78 782 q0 -29 2 -100.5t3 -152t3 -152.5t2 -101q12 -41 18.5 -78.5t17.5 -66.5t34.5 -48.5t74.5 -23.5q10 -2 31 -4t41.5 -3t37.5 -3t22 -2h65q29 0 70 5t81 18.5t68.5 37t32.5 60.5l20 199v817q0 6 -1 19.5t-1 27.5t-1 27.5t-1 19.5v20q0 51 3.5 102.5t3.5 102.5q0 63 -60 88h-39 q-45 0 -77.5 -12t-43.5 -61q1 -38 1 -75q0 -57 -2 -115q-3 -96 -5 -191q0 -4 -1 -16.5t-2 -27t-2 -26.5t-1 -18v-433q4 -41 5 -67.5t1 -65.5q0 -37 -1 -57t-5 -59q-2 -25 -3 -51.5t-5 -51t-16.5 -44t-36.5 -32.5q-20 -10 -25.5 -13t-21.5 -3q-23 0 -29 16.5t-8 36.5v94 q0 2 -2 14.5t-3 27t-3.5 26.5t-2.5 16q0 14 -2 51.5t-4 79t-3 78.5t-1 52v153q0 102 3 202.5t3 203.5q0 80 -1 141t-5 143q-6 27 -21.5 41.5t-36 20.5t-44.5 6h-47q-27 0 -45.5 -6t-28.5 -35q-2 -8 -2 -33v-31q0 -47 3 -95t3 -97q0 -102 -5 -202.5t-5 -201.5v-92z" />
<glyph unicode="V" horiz-adv-x="833" d="M20 1573v12q0 20 15.5 35.5t36.5 15.5q16 0 31.5 -4t31.5 -8h176q6 0 21.5 -8t21.5 -17q-1 -19 -1 -36q-1 -37 5 -69q8 -46 17 -103q0 -6 3 -27t5 -44.5t5 -44t3 -26.5q0 -4 2 -18t7.5 -29.5t11.5 -28t14 -12.5q16 0 22.5 19.5l10.5 31.5q18 74 24 147t17 150v17 q0 18 -5.5 35.5t-5.5 33.5q0 23 18.5 32t37.5 9q29 0 55.5 -3t54.5 -3q27 0 52.5 2t52.5 2q18 0 35.5 -9t17.5 -32q0 -29 -16 -63l-162 -1385v-20q0 -18 3 -34.5t3 -33.5q0 -25 -18.5 -39t-40.5 -14q-16 0 -34 3t-36 3q-57 0 -112.5 -5t-110.5 -5q-25 0 -36 11.5t-17.5 27.5 t-8.5 34.5t-4 35.5q0 6 -3 21t-6 33.5t-6 34t-5 21.5l-162 1202q0 23 -2 55.5t-8 59.5q0 4 -5.5 18.5t-5.5 18.5zM88 1518q0 -25 6 -48.5t10 -48.5q10 -111 23.5 -219t34.5 -217q10 -70 11 -139.5t13 -136.5q8 -43 18.5 -69t14.5 -62q12 -117 27.5 -233t40.5 -230 q0 -2 2 -7.5t2 -9.5q10 -23 29.5 -32t44.5 -9h14q8 0 28.5 1t43 2t42 2t27.5 1q23 4 39 17.5t19 38.5l26 350l25 109l26 292q0 4 2 15.5t5 15.5q10 37 21 72t15 74l31 432q4 14 5 22t1 23q0 41 -31.5 53t-66.5 12t-58.5 -14t-31.5 -49q-16 -90 -21.5 -178t-21.5 -177 q0 -20 -4 -72t-8.5 -109.5t-7.5 -110t-5 -72.5q0 -4 -3 -22.5t-5 -38t-5 -37t-3 -21.5q0 -6 -1 -30.5t-1 -53.5t-1 -53.5t-1 -30.5q-2 -31 -10.5 -63.5t-16.5 -61.5l-4 -8t-6 -6l-6 4q0 2 -2 17.5t-2 23.5q0 12 -3 55t-5.5 92.5t-5.5 92.5t-3 53q0 8 -5 44t-10 78t-10 76.5 t-5 45.5q-6 72 -8.5 128t-12.5 121q-6 41 -6 74q0 35 -4 78q-2 4 -3 13t-3 14q0 2 -4.5 14t-9.5 24.5t-9 23.5t-4 15q-6 23 -9 44.5t-15.5 44t-43 24.5t-51.5 2q-37 0 -65.5 -12t-28.5 -53z" />
<glyph unicode="W" horiz-adv-x="1218" d="M20 1587q-2 23 15.5 35t36.5 12h16q2 0 10 -2t16.5 -3t15.5 -3t9 -2q8 0 32 -1t49.5 -2t48 -2t32.5 -1q10 -2 40 -9t38 -12h8h8q61 12 122 19.5t124 7.5q35 0 80 -1t76 -5q4 0 20.5 -4t20.5 -6h10q27 0 46 16t52 16q54 0 100 -4q31 -3 67 -3q18 0 38 1q23 -4 35 -15 t12 -36q0 -14 -1 -23.5t-5 -23.5l-10 -209l-142 -1182v-88q0 -16 -17 -24t-30 -13h-80h-79q-8 0 -27 1.5t-39 2.5t-38.5 2t-27.5 1q-16 2 -36.5 9t-20.5 27t11.5 36t11.5 38q0 4 -1 10.5t-1 8.5q-2 14 -7.5 49t-11.5 74.5t-11 75.5t-7 51q0 6 -2 18t-5.5 24.5t-8.5 21.5 t-13 9h-2q-14 -23 -14 -43l-33 -264v-25q0 -23 8 -41t8 -38q0 -23 -28.5 -32t-44.5 -9h-13h-22h-21h-12q-41 -4 -94 -10.5t-101 -6.5q-23 0 -34 11.5t-16 28t-5 34.5v35l-104 1042q-16 63 -26.5 120.5t-14.5 123.5v125q0 4 -5.5 28.5t-5.5 28.5zM82 1491q0 -35 2 -62.5 t5 -52t9 -49t17 -57.5q6 -23 12 -62t8 -57l27 -475q2 -31 12 -61.5t12 -63.5q0 -4 1 -22.5t2 -40t2.5 -40t1.5 -22.5t2 -17.5t2 -17.5t4 -16.5t7 -26.5t7 -26.5t4 -14.5q0 -10 3 -35.5t5 -53.5t4 -53.5t2 -35.5q4 -16 15.5 -33.5t32.5 -17.5h155q18 0 42 15.5t24 35.5v115 q106 1012 108 1016t4 6h2h2l7 -6l4 -41l47 -818q2 -8 6 -31.5t4 -31.5q0 -10 2 -37t4 -56.5t3 -56t1 -36.5q8 -37 30 -55.5t49.5 -27t60.5 -8.5h65q29 0 53.5 16.5t28.5 47.5l100 879q8 29 11.5 54t5.5 50t3 51.5t5 59.5q8 74 22.5 136t14.5 140q0 55 -35 76.5t-86 21.5 q-70 0 -82 -67q0 -84 -10 -178.5t-21 -171.5l-22 -525q0 -18 -4 -49t-21 -41l-6 6q0 2 -5 19.5t-11 44t-8 41.5q-4 10 -7.5 31.5t-5.5 25.5l-30 537q-15 66 -19 120q-2 34 -3 75q0 23 1 48q-4 18 -19.5 41t-37.5 23h-162q-33 0 -53.5 -19.5t-28.5 -48.5q0 -33 -3 -59.5 t-8 -53t-9.5 -52t-6.5 -54.5l-41 -672q-2 -23 -10 -60.5t-22 -59.5q-4 10 -6.5 22t-4.5 21l-36 489v291q0 29 -11.5 54.5t-13.5 53.5q-2 43 -5 74t-16.5 49.5t-41 26.5t-76.5 8q-43 0 -59.5 -26.5t-16.5 -65.5zM342 1503q0 -10 2 -28.5t7 -36t14.5 -30.5t21.5 -13 q10 0 18.5 13t14.5 29.5t9 34t3 27.5q0 23 -11 43.5t-36 20.5t-34 -20t-9 -40zM807 1507q0 -2 2 -31.5t8 -65.5t15.5 -64.5t21.5 -28.5h4q12 6 20.5 35.5t13.5 64.5t7 64.5t2 34.5q0 23 -12 45t-35 26q-10 2 -19.5 -7t-15.5 -23.5t-9 -28t-3 -21.5z" />
<glyph unicode="X" horiz-adv-x="806" d="M20 63v3q0 2 4.5 12t7.5 20.5t6 19.5t3 11q2 6 3 21.5t3 33t3 32.5t1 22l14.5 58t21.5 88t22.5 88t15.5 58q20 78 44 151t24 157q0 63 -17.5 117.5t-30.5 119.5q-2 12 -7 45t-10 70t-9 69.5t-4 45.5q-6 29 -18.5 47t-24.5 47q-14 33 -15 63q0 31 -6 66q0 4 -7 26.5 t-7 26.5q-2 0 -2 6v10q0 23 16.5 32t36.5 9q12 0 61.5 -2t102.5 -7t95 -16t42 -30q0 -18 -8 -33.5t-8 -36.5q0 -10 2 -25t7 -30.5t14.5 -27t21.5 -11.5q10 0 19 11.5t16.5 27t11.5 31.5t4 27q0 20 -11.5 36.5t-11.5 32.5q0 12 13.5 20.5t31 12.5t34 7t22.5 3q2 0 16.5 1 t30.5 1q18 0 32.5 1t18.5 1q20 2 38.5 9.5t39.5 7.5q20 0 33.5 -13.5t13.5 -33.5v-11q0 -2 -3 -11t-5 -20.5t-5 -20.5t-3 -11q0 -4 -1 -17.5t-1 -29.5q0 -14 -1 -28.5t-1 -16.5q-2 -4 -3.5 -16.5t-3.5 -16.5q-4 -20 -14 -61.5t-21.5 -84.5t-20.5 -78.5t-11 -45.5 q-18 -68 -35.5 -128.5t-17.5 -132.5q0 -49 6 -95t16 -97q41 -139 72 -266t47 -269q4 -18 13 -44.5t9 -41.5q0 -23 -15 -28.5t-32 -5.5q-59 0 -117.5 3t-117.5 7q-12 4 -22.5 9t-14.5 17q8 18 10 27.5t2 26.5q0 18 -8 33.5t-14 31.5q-10 29 -18.5 48.5t-43.5 19.5 q-16 0 -25.5 -15.5t-13.5 -36t-6 -41t-2 -28.5q0 -23 8.5 -40t8.5 -38v-8q-12 -16 -26.5 -26.5t-33.5 -10.5h-14q-2 0 -15.5 2t-15.5 4q-10 0 -35.5 2t-55.5 3t-55.5 3t-35.5 2q-18 2 -38 11.5t-20 31.5zM92 1526q0 -31 24.5 -55.5t35.5 -51.5q12 -35 17 -70.5t6 -72.5 t4 -73t14 -70l67 -244v-31v-37q0 -4 -3 -14t-5 -22.5t-5 -23.5t-3 -13q0 -4 -3 -25t-7.5 -45.5t-7.5 -45t-3 -24.5t-2 -11t-2 -9q-10 -29 -26.5 -55.5t-26.5 -55.5q-8 -29 -10 -59.5t-11 -59.5q-12 -47 -29.5 -99t-17.5 -105t33 -70.5t82 -17.5q35 0 62.5 13t31.5 56l15 170 q4 33 17 65.5t19 65.5q2 10 7.5 35t9.5 53.5t8 53t6 34.5l6 6h2h2q6 -6 7 -16q2 -12 8 -34.5t12 -47t10 -44t6 -25.5q0 -4 2 -17.5t2 -17.5q0 -10 1.5 -35t2.5 -52.5t2 -52t1 -32.5q10 -20 18 -30.5t15.5 -20t12.5 -20.5t11 -34q10 -41 42 -52t69 -11h18q16 0 20 2 q27 6 38.5 18.5t11.5 38.5q0 27 -9.5 51.5t-13.5 51.5q0 4 -1 17t-1 28q0 14 -1 27.5t-1 17.5q-4 31 -18.5 57.5t-24.5 54.5q0 4 -3 20.5t-7 35t-7.5 35t-3.5 20.5q-6 29 -19 54.5t-17 53.5q0 4 -1 19.5t-3.5 33t-4.5 33t-2 19.5t-3 19.5t-6 33t-7 32.5t-4 19v19 q0 16 1 26.5t5 26.5q2 10 8 37t14.5 55.5t14.5 54t10 35.5q12 27 24.5 54.5t16.5 56.5q0 6 4 28.5t8.5 48t8.5 49t6 30.5q0 4 5 19t11 32.5t12.5 33t6.5 19.5q4 10 5 14t1 15q0 41 -32 55t-67 14q-41 0 -70.5 -13t-39.5 -54q0 -6 -1 -19.5t-1 -27.5t-1 -27.5t-1 -19.5 q-4 -41 -16.5 -74t-26.5 -72q-6 -16 -8.5 -50t-4.5 -69t-6 -62.5t-12 -31.5q-16 12 -27.5 40t-17.5 59.5t-10 63.5t-6 50q0 6 -4.5 29.5t-9.5 49.5t-9 48.5t-4 28.5q0 2 -1 14t-2 25.5t-2 25t-1 13.5q-2 27 -19.5 42t-40 22t-48 8t-46.5 1q-31 0 -58.5 -14t-27.5 -51z" />
<glyph unicode="Y" horiz-adv-x="792" d="M20 1569v18q0 23 12.5 36t35.5 13q16 0 27 -2t30 -10h182q10 0 31.5 -13.5t21.5 -27.5q0 -16 -6 -32.5t-6 -34.5q0 -8 3 -27t10.5 -38t17.5 -34.5t24 -15.5q18 0 29.5 13t17 31.5t7.5 38t2 32.5q0 16 -3 31.5t-3 31.5t15 28.5t32 12.5h250q10 0 16 -11.5t6 -19.5 q0 -33 -8 -69.5t-8 -71.5l-88 -389q-4 -12 -14.5 -42t-21.5 -63.5t-20.5 -62.5t-13.5 -41q-35 -113 -38 -230.5t-3 -232.5v-59q0 -12 1 -44t2 -68t2 -67.5t1 -44.5q2 -4 5 -20t5 -23v-2q0 -16 -14 -25t-29 -14q-66 -4 -134 -7t-134 -3q-23 0 -41 10.5t-18 36.5v4q2 6 7 27 t9 27q4 96 7 198.5t3 200.5q0 41 -1 84t-9 80l-115 530q-2 4 -5 16.5t-5 16.5q-16 37 -34.5 78t-22.5 82q0 4 -1 22.5t-2 38t-2 38t-1 22.5t-5.5 23.5t-5.5 23.5zM72 1507q0 -35 10 -66.5t25.5 -62t30 -60.5t24.5 -63q8 -36 8 -74v-15v-11q0 -40 12 -76q0 -4 4 -14 t8.5 -22.5t8.5 -23.5t6 -13q4 -16 6 -42t4 -42q0 -4 2 -13.5t2 -11.5q10 -27 23.5 -54.5t19.5 -56.5q8 -49 9 -98t12 -100v-144q0 -78 -5.5 -154.5t-5.5 -154.5v-31q10 -25 28 -34t44 -9h47q25 0 47.5 6.5t38 20.5t19.5 43q0 23 -1 79t-1 120q0 66 1 122t1 78q0 25 3 67 t6 85t6 78t5 43l10 47l91 250q10 33 11 55.5t9 58.5q12 55 22.5 103.5t18.5 105.5q4 27 15.5 51.5t11.5 53.5q0 18 -12.5 29.5t-28.5 15.5q-4 2 -23 2h-20q-35 0 -56.5 -5t-34 -18.5t-19.5 -35t-15 -52.5q-6 -23 -16.5 -42t-14.5 -42l-47 -405q-2 -8 -6 -17.5t-10 -13.5 q-14 6 -15 25q-10 70 -18 138.5t-17.5 138t-23 137t-35.5 133.5q-14 41 -45 52t-70 11t-74.5 -13.5t-35.5 -58.5z" />
<glyph unicode="Z" d="M20 55v23q6 72 10.5 145.5t20.5 145.5l88 364q6 14 21.5 54t33 85.5t32 85t18.5 56.5q6 23 17 60.5t21.5 76.5t17.5 68.5t7 33.5v58q0 12 -9 19t-22.5 12.5t-26.5 7.5t-20 2q-8 0 -29.5 1t-45.5 1q-25 0 -46.5 -1t-29.5 -1q-16 6 -19.5 15t-3.5 22q0 27 6.5 49t6.5 49 t-8.5 50.5t-8.5 49.5q0 16 11.5 26.5t25.5 14.5h131q20 0 73.5 2t113 3t112.5 3t76 2q10 4 21.5 5.5t23.5 1.5q23 0 38 -11.5t15 -36.5v-10q-10 -53 -11 -106.5t-9 -106.5q-18 -113 -46 -225.5t-69 -218.5l-141 -561v-15q0 -29 15 -43t38 -20t47 -6h49q18 0 37 3t39 3 q18 0 37.5 -14.5t19.5 -34.5q0 -23 -9 -45.5t-9 -44.5q0 -23 6 -42.5t6 -41.5q0 -39 -41 -54q-54 2 -108 2q-81 0 -163 -4t-163 -4q-54 0 -108 2q-12 -4 -21.5 -5t-21.5 -1q-25 0 -35.5 14.5t-10.5 36.5zM82 135q0 -29 18.5 -48t51.5 -19h432q29 0 43 29.5t14 52.5 q0 68 -63 83h-52q-41 0 -79.5 -8t-79.5 -8q-8 0 -24.5 2t-33 7t-29 11.5t-12.5 10.5t1 7t1 5q27 14 50.5 32.5t27.5 49.5q0 4 2 17.5t4 30t3 29.5t1 17q0 2 2 10.5t5 10.5q4 10 15 41.5t15 42.5l47 229q8 35 24.5 66.5t22.5 68.5q0 2 1.5 14.5t3.5 24.5t4 23.5t2 15.5 q4 23 18 50.5t18.5 35.5t6.5 14.5t4 8.5q10 33 10 65q0 33 10 66q8 29 22.5 54.5t18.5 53.5q0 4 2 17.5t4 30t3 29.5t1 17q0 2 3.5 13.5t5.5 24t5 22.5t3 14v17q0 75 -74 75h-2h-18q-6 0 -26.5 -2t-44.5 -5t-44 -5t-25 -2q-14 0 -49 -1t-73 -1q-39 0 -74 1t-49 1 q-29 -10 -43.5 -39t-14.5 -57q0 -39 23.5 -62.5t62.5 -23.5q27 0 56.5 2t56.5 12q16 8 29.5 20.5t31.5 12.5q23 0 39.5 -17.5t28.5 -29.5q0 -2 2 -9q0 -14 -12.5 -25t-20.5 -24q-16 -25 -19 -62.5t-7 -57.5q-8 -43 -21.5 -76t-30.5 -80q-10 -29 -9 -59.5t-11 -59.5 q-10 -27 -26.5 -50.5t-26.5 -49.5q-6 -16 -9.5 -28.5t-6.5 -24t-6 -24.5t-9 -32q-6 -23 -15.5 -42t-15.5 -42q-18 -61 -29.5 -123.5t-27.5 -126.5q0 -4 -4 -15t-9.5 -23.5t-9.5 -24.5t-4 -14t-2 -10.5t-2 -10.5q0 -8 -2 -29.5t-4 -46t-3 -46t-1 -29.5q-2 0 -2 -7v-8z" />
<glyph unicode="a" d="M20 328q0 98 14.5 195.5t37.5 195.5q0 4 1 13t1 13q0 16 -1 28.5t-5 29.5v80q0 49 4 101t20.5 96t52 74t99.5 34q39 4 80 5t82 1q47 0 89 -2t76.5 -14.5t60 -39t40.5 -75.5q18 -66 22 -134.5t4 -137.5q0 -113 -3 -223.5t-3 -223.5v-229q4 -14 5 -25.5t1 -28.5 q0 -23 -14 -34t-33 -15q-29 1 -57 1q-72 0 -142 -7q-98 -10 -196 -10q-57 0 -95 5t-61.5 23.5t-38 52.5t-24.5 91q-17 82 -17 160zM82 319q0 -14 2 -16q0 -10 2 -34.5t4 -51.5t5 -51.5t3 -34.5q6 -29 25.5 -43t44.5 -19.5t51 -5.5h53h45q16 4 26.5 14.5t10.5 26.5 q0 33 -18.5 59.5t-28.5 55.5q-16 41 -19 82t-3 84q0 10 1 30.5t1 22.5l35 203q2 2 2 10v13q0 41 -21.5 54t-60.5 13q-55 0 -93 -36t-51 -91q-6 -72 -11 -134t-5 -128v-23zM119 877q2 -16 19.5 -32t33.5 -16h78q33 0 46 29t15 53q0 6 1 21.5t2 34t2 34t1 21.5q4 12 13.5 29.5 t25.5 17.5q14 0 24.5 -11t15.5 -26.5t7.5 -32t2.5 -24.5q0 -6 1 -29.5t2 -49.5t2 -48.5t1 -28.5q0 -4 2 -14t5 -22.5t5 -23.5t2 -14q0 -4 -2 -20t-2 -20v-35v-39t4 -41v-344q0 -8 1 -27.5t2 -41t2 -40t1 -26.5q4 -18 16.5 -33t34.5 -15h101q16 0 33.5 17.5t17.5 34.5v897 q0 109 -105 125q-10 0 -37.5 2t-58.5 3t-58.5 3t-37.5 2h-68h-49q-25 0 -45 -6t-34.5 -21.5t-16.5 -46.5q-4 -45 -5 -81t-1 -77v-38z" />
<glyph unicode="b" horiz-adv-x="714" d="M20 342v113q0 37 1.5 114.5t2.5 176t2 207t2 206.5t2 176t1 115q2 8 4 33.5t2 34.5q0 4 -3 23.5t-3 23.5v22q0 23 13 39t38 16q23 0 46.5 -3t45.5 -3q35 0 64.5 9.5t62.5 9.5q20 0 34.5 -16.5t14.5 -36.5q0 -27 -3 -52.5t-3 -54.5v-65q0 -10 1 -32t1 -48q0 -25 1 -47.5 t1 -30.5q6 -29 23.5 -41t40 -17.5t48 -6.5t50.5 -3q8 0 22.5 -5t30 -11t26.5 -14.5t11 -16.5h-209q-29 0 -41 -26.5t-12 -49.5q0 -20 7 -34.5t17.5 -28.5t21.5 -27.5t17 -29.5l6.5 -19.5t4.5 -17.5q2 -12 4 -36t5 -47.5t5 -43t2 -25.5v-47v-51q-2 -25 -5 -85.5t-6 -128 t-6 -127t-5 -83.5q0 -18 -4.5 -40t-16.5 -38q-16 -23 -31.5 -37t-15.5 -39q0 -20 16.5 -30.5t39 -14.5t42.5 -4h35q20 0 44 1t45.5 8t37.5 20.5t23 38.5q0 47 3 96t11 96q0 6 1 23.5t1 38.5v37v24v33v39q0 20 -1 34.5t-1 16.5q0 6 -1 28.5t-3 28.5v490q0 6 -3 20.5t-7 22.5 h2q10 0 20 -13.5t17.5 -32t12.5 -36t5 -23.5q0 -10 2 -28.5t4 -38t3 -34.5t1 -19q6 -252 6 -510q0 -6 -1 -18.5t-1 -14.5q0 -16 -2 -47t-5 -63t-5 -58.5t-2 -34.5q0 -2 -3 -14.5t-6 -27.5t-6.5 -31.5t-5.5 -24.5q-8 -33 -30.5 -50.5t-52 -24.5t-61.5 -8t-56 -1h-51l-49 7 t-75 9t-76 8t-50 6q-6 0 -19.5 1.5t-30 2.5t-30 2t-19.5 1q-16 4 -24 17t-8 28q0 16 3 31.5t3 31.5q0 53 -5.5 103.5t-5.5 103.5zM72 297q0 -10 1 -33.5t2 -51.5t2 -52.5t1 -34.5q6 -20 17 -30.5t26.5 -15.5t32.5 -5h36q16 0 35 1t35 7t26.5 17.5t10.5 33.5q0 359 -7 705 q-4 220 -4 444q0 128 1 256q-8 29 -31 43t-53 14q-41 0 -75 -12t-44 -55q1 -33 1 -67q0 -67 -3 -133q-4 -100 -4 -200q0 -113 3 -225t3 -225q0 -84 -6 -166t-6 -168v-47z" />
<glyph unicode="c" horiz-adv-x="688" d="M20 375v557q0 78 14.5 129t46.5 80.5t84 41t128 11.5q55 0 111.5 -4t111.5 -19q33 -8 55.5 -17t37 -22.5t22.5 -35t14 -54.5q10 -47 11 -94t1 -96v-23q0 -14 -1 -32.5t-1 -34.5v-23q-4 -16 -16 -21t-27 -5q-18 0 -29.5 2t-31.5 10h-156q-20 0 -33.5 -23.5t-13.5 -39.5 v-109q0 -20 15.5 -38.5t37.5 -18.5h183q12 4 20 4h21q20 0 31.5 -12.5t11.5 -30.5v-15q0 -8 -2 -10q-6 -96 -10.5 -177t-31 -140.5t-85 -92t-174.5 -32.5q-37 0 -79 4t-82 14t-76 29.5t-60 50.5q-4 4 -9.5 17.5t-7.5 19.5q-4 14 -9 42t-5 32q-2 14 -5 40.5t-5 55.5 t-4.5 51.5t-2.5 28.5zM72 856q0 -147 2 -297t4 -293q2 -27 5 -56.5t11 -56t26.5 -47t51.5 -28.5q12 -2 32.5 -6t40 -8.5t35 -7.5t17.5 -3q2 -2 25 -2h36q20 0 47 -1t51.5 2t47 12.5t37.5 29.5q2 6 10 20.5t16 31t15.5 32t11.5 21.5q2 4 5 15t5 15q4 41 5 73t1 69 q0 23 -11 50.5t-42 27.5h-119q-14 0 -29.5 -17.5t-15.5 -30.5v-192q0 -20 -15.5 -33.5t-31.5 -13.5q-23 0 -35 17.5t-14 39.5q-2 12 -4 33.5t-3 43t-2 38t-1 20.5v594q0 8 2 24.5t6 32t13 26.5t24 11q27 0 39 -22.5t14 -44.5q0 -8 1 -29.5t2 -44t2 -43t1 -29.5 q4 -25 18.5 -39t34 -20t42 -8t42.5 -2q43 0 59.5 27.5t16.5 64.5q0 27 1 68v12q0 36 -5 68q-6 38 -23.5 69t-56.5 41q-12 2 -31.5 7t-38 9t-44.5 11h-197q-47 0 -73.5 -16.5t-41 -44t-17.5 -63.5t-5 -75v-82z" />
<glyph unicode="d" d="M20 365v45v59q0 33 1.5 95.5t2.5 125t2 113.5t1 61q0 33 5 76t9 76q4 29 8 58.5t13.5 55t29 42t53.5 20.5q8 0 31 2t47.5 4t47 3t30.5 1q23 6 37 20.5t16 37.5l21 333q4 41 43 41q29 0 57.5 -5t56.5 -5q29 0 55.5 3t55.5 3h23q16 -12 24 -25.5t8 -33.5q0 -16 -1 -29.5 t-5 -32.5q0 -23 -2 -79t-4 -118.5t-3 -118.5t-1 -79v-102q0 -94 5 -188.5t5 -188.5q0 -143 -4 -285q-3 -95 -3 -192q0 -48 1 -97q-4 -20 -18.5 -35.5t-36.5 -15.5q-20 0 -38 3t-38 3q-72 0 -141.5 -3t-141.5 -3h-39q-6 0 -21 1t-32.5 3t-33 4t-21.5 2q-29 6 -46.5 28 t-27.5 48.5t-14 57t-6 55.5q0 10 -2 33.5t-4 48t-3.5 46t-1.5 28.5zM78 276q0 -18 5 -55t17.5 -71.5t32 -61.5t49.5 -27h135q12 0 35 14.5t23 26.5q0 10 -6 17q-4 4 -20.5 26.5t-20.5 26.5q-16 23 -21.5 57.5t-5.5 61.5v657q0 37 18.5 69t18.5 68q0 20 -7 40t-34 20h-135 q-23 0 -36 -19.5t-17 -38.5l-25 -192q0 -2 -1 -47t-2 -106.5t-2 -126t-1 -105.5v-127v-107zM399 119q0 -18 12.5 -27.5t29 -14.5t32.5 -5h31q14 0 35.5 1t41 6t34 16t14.5 34v397q4 35 5 56.5t1 54.5q0 104 -3 209.5t-3 212.5v252q8 41 15 82t7 82q0 72 -38 87t-99 15 q-63 0 -78.5 -29.5t-19.5 -89.5q0 -25 1 -73t1 -111v-129v-129t-1 -110.5t-1 -71.5q0 -10 -2 -50.5t-3 -86.5t-3 -86t-2 -50v-61q0 -55 3 -110.5t3 -110.5v-93q-4 -18 -8.5 -33.5t-4.5 -33.5z" />
<glyph unicode="e" d="M20 365v133v123q0 18 3.5 67t6.5 104.5t6 104.5t5 68q4 41 10 69.5t17 69.5q8 37 36.5 54.5t65.5 23.5t74 6h67h43q6 0 25.5 -1t41 -3t41 -4t27.5 -2q25 -4 66 -9.5t63 -21.5q20 -16 33 -41t20 -53.5t10 -57t5 -51.5q0 -8 2 -28.5t4 -43t3 -42t1 -27.5q2 -2 2 -17v-20 v-25q0 -14 -2 -16q0 -25 -2 -86t-5 -130t-5 -130.5t-2 -85.5q-4 -92 -25.5 -150.5t-62.5 -90.5t-103.5 -44t-150.5 -12h-47q-31 0 -63.5 5t-57.5 17t-25 37q18 0 40 -1t42 -7h213q20 0 46 4t48.5 13.5t40 25.5t21.5 41l31 199v67q0 18 -12.5 26.5t-30 11.5t-33.5 3h-25 q-37 0 -68.5 -6t-37.5 -51q0 -8 -1 -30.5t-2 -47t-2 -47.5t-1 -31q-2 -23 -11.5 -51.5t-37.5 -28.5q-29 0 -45.5 26t-16.5 54v224q-4 8 -10 33.5t-8 33.5v2q0 20 5 38.5t5 41.5t-2 38t-8 42v270q0 31 17.5 60.5t51.5 29.5q31 0 45.5 -22.5t18.5 -53t3 -61.5t-1 -49 q0 -49 1 -98v-8q0 -45 -11 -89q-8 -25 -29 -37t-21 -38q0 -23 17.5 -39.5t42.5 -16.5h156q31 0 46 29t15 55v291q0 6 -3 20.5t-6 32t-6 31.5t-6 21q-2 16 -3 34.5t-6 35t-15 28.5t-33 16q-10 0 -33.5 2t-49 4t-50.5 3t-33 1h-88h-88q-33 -4 -65.5 -16t-38.5 -51 q-2 -8 -5.5 -27.5t-6.5 -41t-6 -40t-3 -26.5q-2 -20 -6 -72.5t-7 -110t-6 -109.5t-3 -73v-112q0 -90 12 -177.5t12 -177.5q-16 0 -28.5 17.5t-20.5 41t-12 47t-4 34.5q0 10 -2 30.5l-4 41t-3.5 36.5t-1.5 21z" />
<glyph unicode="f" horiz-adv-x="520" d="M20 1069q0 53 20.5 95t27.5 93q0 8 3 40t7 69t7 68.5t3 40.5q4 41 11 72.5t22.5 53t43.5 33t75 13.5q6 0 28.5 1t46.5 1q27 0 50.5 1t29.5 1q4 2 20.5 4t20.5 2h6q14 0 36 -10.5t22 -28.5t-11.5 -37.5t-15.5 -38.5q-4 -20 -5 -46t-15.5 -42t-24.5 -26.5t-17.5 -20.5 t-11.5 -23.5t-4 -33.5q0 -49 1 -92.5t30 -83.5q10 -14 18.5 -27.5t12.5 -30.5q4 -33 5 -59.5t1 -57.5q0 -23 -11.5 -34t-25.5 -22t-25.5 -26.5t-11.5 -46.5q0 -82 3 -162.5t3 -162.5v-94q-2 -92 -3 -190.5t-7 -194.5q-2 -20 -18.5 -36t-36.5 -16q-23 0 -46.5 3t-47.5 3h-54 q-6 -4 -26.5 -9t-26.5 -7h-6q-14 0 -29.5 11.5t-15.5 25.5v135l-27 686q-2 53 -16.5 103.5t-14.5 103.5zM115 971q0 -27 1 -95.5t1 -146.5t1 -146.5t1 -95.5q14 -90 17 -182q1 -39 1 -78q0 -53 -2 -104q10 -35 36 -46t60 -11q35 0 63 12t38 51q0 18 1 62.5t2 95.5t2 96t1 63 v115v98q0 14 -2 49t-3 73t-3 73t-2 49q-6 18 -9.5 31.5t-3.5 30.5q0 20 11.5 39.5t15.5 39.5q0 4 1 22.5t1 23.5q0 61 -6 122.5t-6 122.5q0 29 4 68t22.5 61.5t43 34.5t24.5 47q0 33 -22.5 51.5t-53.5 18.5q-29 0 -62.5 -5t-64 -18.5t-52 -36t-26.5 -55.5q-2 -12 -4 -34.5 t-5 -46t-5 -42t-2 -22.5q0 -8 -1 -41t-1 -72q0 -37 -1 -69.5t-1 -40.5q0 -4 -2 -17.5t-3 -30t-3 -30t-2 -17.5v-28v-39z" />
<glyph unicode="g" horiz-adv-x="714" d="M20 842v98q0 2 3.5 23.5t7.5 51t8 59.5t8 48q4 25 14.5 45.5t36.5 28.5h92q92 0 184.5 -8t186.5 -8q18 0 36.5 3t37.5 3q53 0 53 -53q0 -18 -3 -37t-3 -39q0 -66 3 -131.5t3 -130.5q0 -72 -3 -141.5t-3 -139.5q0 -82 6 -161t6 -160v-35q0 -23 -2 -25l-30 -371 q-6 -63 -34 -95t-69 -44t-92 -12h-98q-51 0 -99 -2h-18q-38 0 -72 7q-41 9 -72.5 34.5t-50.5 81.5q-26 80 -26 168q0 51 5 101t5 103q0 186 -10.5 368.5t-10.5 369.5zM72 848q0 -33 1 -60.5t5 -60.5l16 -522q2 -47 19.5 -78t66.5 -31q18 0 45 -1t52.5 4t44 17.5t18.5 39.5 q0 35 -17.5 65.5t-21.5 67.5v53t-1 82t-2 82t-1 53q0 8 -2 29.5t-4 27.5v283q0 25 5 58.5t17 56.5q6 12 16.5 21t20.5 18.5t17.5 19.5t7.5 25q0 23 -24.5 33t-57.5 14t-64 4h-36q-35 0 -56.5 -13.5t-32.5 -48.5q-20 -63 -26 -118.5t-6 -120.5zM82 -84q0 -35 9 -61.5 t18 -61.5q6 -23 10 -42t12 -35.5t23.5 -28t44.5 -13.5q53 -6 94 -6h98h94q41 4 78 18.5t47 59.5q0 113 13.5 222.5t13.5 219.5q0 82 -6 162t-6 160v82q0 49 6 88v391q0 20 -18.5 38.5t-39.5 18.5h-98q-23 0 -43 -18t-20 -41q0 -18 3 -35.5t3 -36.5q0 -170 -6 -337.5 t-6 -335.5v-140q8 -47 10 -94t2 -94v-25q0 -8 -2 -29.5t-4 -44t-4 -44t-2 -29.5q-2 -20 -11.5 -44t-36.5 -24q-25 0 -36 23.5t-15 44.5q-6 45 -8 77.5t-13.5 54t-36 32t-73.5 10.5q-43 0 -68.5 -17.5t-25.5 -64.5z" />
<glyph unicode="h" horiz-adv-x="714" d="M20 186v1262q4 35 5.5 73t1.5 72q4 14 14 28.5t27 14.5h161q16 4 28.5 7.5t29.5 3.5q20 0 31.5 -15.5t15.5 -32.5q0 -6 -1 -21t-1 -34q0 -16 1 -31.5t1 -21.5q0 -12 2 -45t5 -70t5 -69.5t2 -44.5q10 -42 46 -50q28 -6 62 -6h19q22 1 44.5 1t44.5 -1q44 -2 71 -35 q4 -4 7 -12t5 -12q12 -53 21.5 -102.5t13.5 -102.5q0 -29 2 -100.5t4 -152.5t3 -152.5t1 -100.5q0 -2 1 -19.5t1 -25.5q0 -61 -6 -122.5t-6 -125.5q0 -18 3 -36.5t3 -36.5q0 -25 -15.5 -40.5t-39.5 -15.5q-20 0 -37.5 3t-38.5 3q-86 0 -169 -3t-169 -3h-115q-25 2 -47 13.5 t-26 38.5zM68 1491q0 -6 1 -17.5t1 -25.5q0 -12 1 -24.5t1 -16.5v-829q0 -27 2 -92.5t3 -140.5t3 -140t4 -92q10 -35 38 -48.5t62 -13.5q39 0 68 10.5t39 51.5q0 8 1 29.5t2 44t2 44t1 29.5v37v45v82q0 57 -1 128t-1 148q0 78 -1 149t-2 126t-1 82q-4 35 -7 54t-3 48 q0 16 1 27.5t5 32.5v112v113q0 18 -1 41.5t-7.5 45t-18.5 39t-37 23.5q-4 2 -16 2h-17q-47 0 -84.5 -20.5t-37.5 -75.5v-8zM358 1067q27 -49 43.5 -100.5t16.5 -108.5v-739q0 -16 14 -31.5t31 -15.5h110q25 0 39.5 18.5t18.5 38.5q0 8 1 32.5t1 49.5q0 27 1 50.5t1 33.5 q0 4 1 31.5t1 44.5q0 139 -2 276t-4 275q0 4 -2 15t-4 15q0 4 -4.5 23.5t-6.5 23.5q-4 27 -7 54.5t-11 49t-25.5 35t-50.5 13.5q-20 0 -48 1t-53.5 -3t-43 -17.5t-17.5 -41.5v-23z" />
<glyph unicode="i" horiz-adv-x="385" d="M20 1372v23q0 2 2.5 14t4.5 16q0 8 2 33t5 50.5t5 49t2 33.5q4 20 18.5 33.5t36.5 13.5q53 0 107.5 -3t107.5 -7q16 -4 29.5 -13t13.5 -30q0 -16 -3 -33.5t-3 -33.5q0 -27 1 -56.5t3 -52.5q2 -4 6 -20.5t4 -20.5q2 0 3 -8q0 -16 -12.5 -27.5t-28.5 -11.5q-18 0 -31.5 3 t-32.5 9h-213q-14 0 -20.5 14.5t-6.5 24.5zM31 53v133v123t6 123v598l4 105q2 14 13.5 30.5t27.5 16.5q23 0 45.5 -6.5t46.5 -6.5q23 0 43.5 1t42.5 12q10 4 20.5 12t22.5 8q16 0 21.5 -18.5t7.5 -28.5q14 -129 17 -256t3 -256q0 -150 -3 -298q-2 -89 -2 -178q0 -60 1 -120 q-4 -10 -15 -25.5t-26 -15.5h-178q-27 -10 -51 -10q-23 0 -33 18.5t-14 38.5zM82 111q10 -31 29.5 -42.5t48.5 -11.5q20 0 41.5 1t40 6.5t33 16.5t20.5 34q0 6 1 18t1 27v26v17q0 53 -3 106t-3 107q0 55 5 109.5t5 109.5v63q0 4 -2 20.5t-3 36t-3 36t-2 20.5q0 14 -1 51 t-1 76q0 41 1 78t1 51q-4 16 -15.5 33.5t-31.5 17.5h-39q-35 0 -72 -8t-45 -49v-47q0 -117 3 -230.5t3 -230.5q0 -92 -6 -183t-6 -184v-75zM88 1460q0 -59 28.5 -73.5t84.5 -14.5h43q31 10 42 26.5t11 49.5q0 39 -3 65.5t-15.5 43t-36 23.5t-64.5 7q-59 0 -74.5 -38 t-15.5 -89z" />
<glyph unicode="j" horiz-adv-x="462" d="M20 -352q0 20 8.5 36.5t12.5 34.5q0 2 1 13.5t2 24t2 22.5t1 14q2 16 10.5 29.5t18.5 27t18 26.5t10 32q0 10 2.5 34.5t3.5 53.5t3 53.5t2 34.5v141q0 180 -6.5 355.5t-6.5 353.5q0 12 1 34.5t1 24.5q0 4 2.5 29t2.5 29v82q2 16 13 39.5t32 23.5q16 0 31.5 -10t31.5 -10 h105q16 0 30.5 10t30.5 10t26.5 -18.5t10.5 -34.5v-1235q0 -63 -12.5 -123.5t-28.5 -122.5q-6 -25 -34 -37t-50 -14q-45 -4 -105.5 -7t-111.5 -3q-25 0 -41.5 11t-16.5 36zM82 -285q0 -47 53 -63q6 0 19.5 -1t27.5 -1t27.5 -1t17.5 -1h4q35 0 58.5 17.5t39 45t22.5 59 t11 60.5q0 20 1.5 75.5t2.5 118t2 118t1 77.5v385v383q0 37 -2 64.5t-11.5 46t-31 28t-62.5 9.5q-39 0 -64.5 -11.5t-41.5 -48.5v-43v-45q0 -23 1 -69t2 -104t2 -122.5t2 -123t2 -104.5t1 -69q2 -10 6 -44t4 -44v-47v-57q0 -20 -1 -70.5t-3 -106t-4 -105.5t-2 -71 q-4 -35 -17.5 -50t-29 -26.5t-26.5 -22.5t-11 -36zM102 1591q0 20 17.5 30.5t36.5 10.5q29 0 57.5 -3t56.5 -3q33 0 61.5 6t59.5 6q51 0 51 -51q0 -29 -6 -57.5t-6 -59.5q0 -27 3 -51t3 -51q0 -18 -12 -44t-35 -26q-18 0 -33.5 13.5t-33.5 13.5h-99q-18 0 -33.5 -15.5 t-33.5 -15.5q-20 0 -30.5 27t-10.5 43q0 18 2 36.5t2 37.5q0 27 -1 55.5t-3 50.5q-2 4 -6.5 20.5t-4.5 18.5t-1 4t-1 4zM172 1413q0 -27 27.5 -44t50.5 -17q72 0 105.5 20.5t33.5 95.5q0 66 -23.5 91.5t-91.5 25.5q-12 0 -30.5 -2t-33.5 -8t-26.5 -17.5t-11.5 -29.5v-115z " />
<glyph unicode="k" horiz-adv-x="724" d="M20 297v254q0 243 4 483q3 166 4 333q0 74 -1 149l4 94q2 14 16 25.5t29 11.5q29 0 54.5 -8.5t53.5 -8.5q23 0 46.5 3t45.5 3q16 0 33 -9t19 -28l20 -374q4 -35 24.5 -49.5t49.5 -14.5q37 0 73.5 3t75.5 3h80q10 -4 18.5 -13t8.5 -19v-5q-2 -4 -8 -26.5t-8 -26.5 q-2 -8 -6.5 -33.5t-4.5 -33.5l-98 -277q-8 -16 -7 -39.5t1 -40.5v-28v-21q0 -8 2 -17t8 -26l111 -334q8 -23 9 -48t5 -50q4 -20 13.5 -37.5t9.5 -38.5q0 -33 -33 -33h-355q-55 -6 -115.5 -11t-117.5 -5q-16 0 -34.5 10.5t-18.5 30.5q2 30 2 62t-2 65q-4 66 -11 125zM72 827 q0 -356 12 -708q4 -20 18.5 -39t38.5 -19h99q20 0 33.5 17.5t17.5 34.5v45q0 57 -2 113.5t-2 113.5v78q0 4 2 13t2 13q2 0 3 2.5t3 2.5q4 -2 6 -6.5t4 -8.5q2 -6 8.5 -26.5t14.5 -44t15 -44t9 -26.5q10 -29 23.5 -57.5t17.5 -57.5q8 -41 12.5 -70.5t14.5 -50t33.5 -31 t70.5 -10.5q14 0 31.5 1t32 7.5t25 17.5t10.5 32v6q0 4 -2 13t-2 12l-91 296q-25 49 -43 100.5t-18 108.5q0 63 21.5 112.5t46.5 106.5q10 25 15 51.5t11 53.5q6 23 16.5 45.5t10.5 46.5q0 20 -11.5 31.5t-29 16.5t-37.5 5h-35h-39q-45 -12 -57 -57q0 -6 -2 -24.5t-4 -40 t-3 -40t-1 -24.5q-4 -47 -23.5 -86t-40.5 -82q-10 -18 -9 -39.5t-11 -38.5q-4 16 -5 32.5t-1 33.5q0 92 6 184t6 186v23q0 14 -1 28.5t-1 24.5v15q0 16 -2 59t-4 92t-5.5 92t-3.5 60q-10 41 -39.5 54t-68.5 13q-25 0 -54.5 -13t-29.5 -44v-490q-2 -8 -4 -25.5t-3 -38 t-3 -37.5t-2 -26v-88z" />
<glyph unicode="l" horiz-adv-x="385" d="M20 59q0 23 11 50v987q0 14 2 70.5t3 120t3 119.5t2 71v108q4 16 13 33.5t32 17.5h8q2 0 9.5 -2t15.5 -5t16 -5t10 -2q2 -2 21 -2h31h26t27 2q10 4 20 4h21q16 0 31.5 -6t19.5 -25q-1 -25 -1 -50q0 -62 7 -122q0 -31 -1 -105.5t-1 -160.5q0 -84 1 -158.5t1 -105.5 q0 -10 2 -50t3 -85t3 -85t2 -50v-68q0 -72 -3 -142.5t-3 -142.5v-151q8 -16 10.5 -26.5t2.5 -26.5q0 -23 -14.5 -39.5t-39.5 -16.5q-31 0 -59.5 5t-61.5 5q-31 0 -59.5 -3t-58.5 -3q-23 0 -37.5 11.5t-14.5 33.5zM88 119q14 -51 76 -51h31q20 0 39.5 3t36 11t20.5 27 q-1 40 -1 80q0 69 4 136q7 105 7 216q0 245 -7 487q-4 154 -4 310q0 89 1 180q-10 39 -38 48t-65 9h-38q-47 -12 -56 -57q1 -77 1 -154q0 -154 -3 -307q-4 -230 -4 -459v-479z" />
<glyph unicode="m" horiz-adv-x="1021" d="M20 893v72q0 4 2.5 23.5t3.5 41t3 41t2 23.5v30t4 30.5t13 24t30 9.5q23 0 44 -3t44 -3q8 0 23.5 1t19.5 1q137 4 273 10t274 6q12 0 61 -2q2 0 17.5 -2t34 -4t36 -4t27.5 -4q33 -6 44 -31t13 -53q2 -16 3 -47t3 -61.5t3 -57.5t1 -33q0 -4 1 -25.5t1 -50.5v-57v-45 q0 -147 -8 -293.5t-8 -294.5q0 -16 3 -32.5t3 -32.5q0 -23 -16.5 -41.5t-38.5 -18.5h-4q-4 2 -24.5 5t-26.5 5l-797 11q-16 0 -31.5 18.5t-15.5 34.5l-10 129q1 53 1 105q0 118 -4 235q-4 168 -4 340zM78 172q0 -51 33.5 -77.5t81.5 -26.5q12 0 28.5 2t31.5 8t26.5 17 t11.5 30v475q0 6 2 22.5t4 35t3 35t1 19.5t1 14t1 15q0 55 -6 109.5t-6 107.5v64q2 6 4 13t12 7t17.5 -6t13.5 -10q25 -14 45 -20.5t29 -36.5v-86q0 -104 -3 -207t-3 -207v-90t1 -81t3 -82t6 -91q10 -39 37.5 -51.5t64.5 -12.5t64.5 12.5t38.5 51.5q-1 139 -1 287v149 q1 227 5 440q2 12 6 21.5t20 9.5q27 0 44.5 -20.5t26.5 -49t13 -57t4 -45.5v-735q0 -18 10.5 -30.5t26 -19.5t32.5 -10.5t32 -3.5q35 0 61.5 13.5t36.5 50.5q-2 68 -2 137q0 86 3 170q5 152 5 305v49v76q0 41 -1 77t-1 50q0 20 -1 43t-7 43.5t-19.5 35.5t-40.5 19 q-6 0 -19 2.5t-26.5 4.5t-25.5 3t-17 1q-2 0 -18 1t-27 1q-45 0 -71.5 -8.5t-71.5 -18.5q0 -2 -6 -2h-10q-41 0 -81 13.5t-85 13.5q-23 0 -31 1t-27 -5q-8 -4 -18 -13.5t-19.5 -18.5t-16.5 -17.5t-9 -8.5h-4q-29 29 -61.5 38t-73.5 9q-45 0 -61.5 -26.5t-16.5 -67.5v-860z " />
<glyph unicode="n" horiz-adv-x="729" d="M20 670v53l31 405q2 10 12.5 19.5t18.5 11.5q18 2 61 7t92.5 10.5t93.5 9.5t60 4q4 2 31 2h41q20 0 54 1h10q29 0 57 -5q32 -6 58 -21.5t32 -48.5q8 -45 13 -88t7 -90q0 -27 1 -84t2 -130t2 -152.5t2 -151.5t2 -130.5t1 -84.5v-88q0 -4 2.5 -23.5t2.5 -23.5 q0 -16 -13.5 -37t-31.5 -21h-422q-41 0 -81 -5t-81 -5q-53 0 -53 53q0 18 1 30.5t5 31.5v172q0 96 -5.5 189t-5.5 190zM72 150q0 -43 22.5 -71t69.5 -28q23 0 46 3t42.5 12.5t32 26t12.5 44.5q0 186 -5 369.5t-5 370.5v22q0 6 1 24.5t1 37.5q0 20 1 38.5t1 24.5q4 14 16 20 h23q33 0 58.5 -18t25.5 -53v-287q2 -6 4 -22.5t5 -35t6 -34.5t3 -23v-32v-35q0 -4 -2 -20.5t-4 -35t-3 -34t-1 -19.5q0 -6 -1 -32.5t-2 -60.5t-2 -68.5t-1 -53.5v-35v-36q4 -16 20.5 -27.5t32.5 -15.5h51q25 0 48.5 2t42 10t29.5 24.5t11 47.5q0 23 -1 38t-5 39q2 103 2 206 q0 77 -1 153q-3 180 -7 360v27q0 18 -1 39.5t-2 41t-1 27.5q-8 27 -30.5 41.5t-47.5 16.5h-76h-69q-35 0 -68 -11q-14 -4 -32.5 -15t-30.5 -11q-20 0 -41 3t-43 3h-45q-41 -12 -54 -53q-2 -16 -4 -59.5t-5 -91.5t-5 -91t-2 -59v-113q0 -59 3 -119.5t3 -120.5 q0 -63 -8 -125.5t-8 -125.5z" />
<glyph unicode="o" horiz-adv-x="714" d="M20 307v475q0 4 2.5 24.5t4.5 27.5q2 16 7 48.5t11 66.5t10 62.5t6 37.5q4 16 8.5 36.5t12.5 39t20.5 34t32.5 21.5q59 14 111.5 19t111.5 5q70 0 122 -4t90 -23.5t62.5 -60.5t39.5 -115q18 -96 20 -192t2 -195v-45t-2 -32q0 -18 -2 -63.5t-4 -95.5t-5 -95t-3 -64 q-8 -74 -34 -119t-67.5 -69.5t-98 -32.5t-124.5 -8q-49 0 -94 2t-83 14t-68.5 40t-51.5 79q-16 41 -26.5 89t-10.5 93zM78 283q0 -20 7 -61.5t21.5 -81.5t34 -69.5t45.5 -29.5h267q2 0 10 2t12 4t22.5 7t22.5 9q53 18 74.5 59.5t26.5 96.5q2 18 4 52t4 67t4 59.5t2 30.5 q0 2 1 21.5t1 44.5v49v43v43v55q0 27 -1 47.5t-1 24.5q0 6 -1 29.5t-3 52t-3 57.5t-3 43q0 14 -4.5 38.5t-10.5 50.5t-15 47.5t-22 31.5q-25 18 -52 25.5t-58 15.5q-2 2 -11.5 4t-13.5 2h-82h-80q-18 0 -43.5 -4t-50 -12.5t-43 -23.5t-20.5 -38q0 -4 -1 -19.5t-3 -32.5 t-4 -32.5t-2 -19.5q0 -6 -5.5 -29.5t-10.5 -49.5t-10 -49.5t-5 -29.5v-76q0 -53 3 -104t3 -105q0 -43 -3 -87t-3 -87v-71zM285 686v39v29q0 23 1 45t1 43v28q0 12 5 40t15 56.5t24.5 50t33.5 21.5q20 0 27 -18.5t9 -34.5q0 -4 1 -21.5t3.5 -37t4.5 -38t2 -22.5 q2 -10 5 -37.5t5 -35.5v-396q0 -2 -3 -23.5t-7 -52t-9.5 -61.5t-7.5 -51q-4 -23 -11 -45.5t-36 -22.5q-20 0 -28.5 14.5t-12.5 32.5q-2 20 -5 77t-6 119t-6 117.5t-3 78.5v20t-1 41t-1 45z" />
<glyph unicode="p" horiz-adv-x="714" d="M20 131q0 233 8.5 464.5t8.5 465.5q0 18 -3 35.5t-3 33.5q0 23 10 39.5t37 16.5q18 0 36.5 -3t39.5 -3q78 0 154.5 10t154.5 10h53q49 -4 80 -10t49.5 -21.5t27.5 -45t15 -79.5q4 -35 5 -50t1 -48q0 -59 -3 -116.5t-3 -114.5q0 -66 3 -129.5t3 -128.5q0 -72 -4 -138.5 t-8 -140.5q-2 -51 -9 -85t-25.5 -54.5t-51.5 -31.5t-86 -17q-6 0 -22.5 -2t-35 -3t-35 -3t-22.5 -2q-45 -12 -51 -58q0 -10 -2 -35.5t-4 -54.5t-3 -55.5t-1 -36.5v-19q0 -16 2 -33.5t2 -33.5q0 -20 -12.5 -34.5t-32.5 -14.5q-29 0 -57.5 5t-57.5 5t-54.5 -3t-51.5 -3 q-51 0 -52 53q0 18 3.5 35.5t3.5 36.5q0 100 -3.5 198.5t-3.5 198.5zM72 -250v-37q16 -35 42.5 -46t65.5 -11q35 0 62.5 10t38.5 47q8 222 8 440v87q-1 88 -1 175q0 176 3 353q6 43 6 94v92v121q-6 20 -20.5 31.5t-34 16.5t-41.5 5h-39q-78 0 -78 -79q0 -147 2 -292t2 -292 q0 -72 -5 -142.5t-5 -142.5q0 -57 3 -112.5t3 -110.5q0 -53 -6 -103.5t-6 -103.5zM344 113q0 -62 57 -76q33 -2 59.5 -3t57.5 -1q45 0 68.5 22.5t34 55t12.5 71.5t2 74q0 2 1 23.5t1 48.5v57v47v33v53q0 29 -1 53.5t-1 34.5q-4 33 -4 60v63q0 55 3 110.5t3 110.5v19v30 t-1 29.5t-1 20.5q0 27 -15.5 55.5t-46.5 28.5h-141q-27 0 -42 -20.5t-15 -45.5v-8q39 -150 41 -297.5t6 -300.5v-70v-88t-16 -84q-8 -18 -19.5 -27.5t-21 -18.5t-15.5 -22.5t-6 -37.5z" />
<glyph unicode="q" horiz-adv-x="698" d="M20 664v141v102q0 4 2.5 23.5t5.5 44t5 48.5t4 36q4 43 17.5 83t64.5 48q41 4 64.5 7t56.5 3h20l365 -26q10 0 20 -10.5t10 -20.5l21 -271v-1230q0 -10 -12.5 -20.5t-22.5 -10.5h-168q-18 -6 -30.5 -8t-28.5 -2t-32.5 12t-16.5 29l-17 307q0 27 -18.5 40t-46 18t-62.5 6 t-67.5 5.5t-61.5 12.5t-45 28q-4 4 -7 15.5t-3 15.5q0 6 -2 24.5t-4 38t-3 38t-1 24.5q0 25 -1 89.5t-2 135t-2.5 135t-1.5 89.5zM78 147q0 -33 23.5 -49t54 -22t63.5 -6h51h37q10 2 18.5 11t12.5 15q0 2 1 10.5t1 12.5q0 18 -8 34.5t-18.5 32t-18.5 31.5t-8 35v598 q0 2 1 14.5t2 27.5t3 31.5t4 26.5q4 35 18.5 58.5t42.5 46.5q4 2 13.5 8t15.5 6q8 0 10 -8t4 -12q4 -68 5 -117v-113v-76q0 -39 -5 -75v-41t-1 -62t-1 -61v-41q0 -186 9 -371q5 -126 5 -253q0 -60 -1 -120q4 -20 16 -37.5t35 -23.5h39q41 0 75.5 10t40.5 58q0 25 1.5 76 t2.5 114.5t1 134.5q0 72 1 135.5t1 114.5v76v127v117q0 20 -1 72t-2 110.5t-2.5 111t-1.5 72.5q0 14 -1 39t-7 46.5t-19 37.5t-40 16h-98q-14 0 -25.5 -10t-26.5 -10q-6 0 -16 6t-22.5 14.5t-26.5 14.5t-29 6h-162q-25 0 -40 -25.5t-17 -46.5l-10 -157v-771z" />
<glyph unicode="r" horiz-adv-x="536" d="M20 37v317q0 200 4 396q3 136 4 273q0 61 -1 122q0 18 14 27.5t31 9.5h16q4 0 23.5 -3t23.5 -3q2 0 13.5 1t23.5 2t22.5 2t14.5 1h65q29 0 58.5 -3t60.5 -3q18 0 35.5 6t38.5 6q18 0 33.5 -11.5t15.5 -31.5q0 -23 -9 -45.5t-9 -44.5q0 -25 9 -47.5t9 -44.5 q0 -23 -14.5 -33t-35 -13.5t-39.5 -2.5t-32 1q-29 -12 -41 -32.5t-17 -45t-4 -53t1 -55.5q-2 -2 -2 -12v-17q0 -152 4 -297q3 -97 3 -197q0 -50 -1 -102q4 -16 5 -25t1 -26q0 -23 -14.5 -38t-38.5 -15q-27 0 -51.5 5t-53.5 5t-54.5 -5t-53.5 -5q-18 0 -35.5 7t-22.5 30z M72 401q0 -16 1 -57t2 -86t2 -86t1 -57q10 -39 38.5 -51.5t65.5 -12.5t62.5 11.5t42.5 46.5v45v45q0 23 -1 79t-2 120.5t-2 120.5t-1 79q-6 37 -7 80v80q0 66 1 113t6 112q0 6 3 27.5t13 25.5l57 -57q6 -8 18.5 -9t22.5 -1q35 0 56.5 24.5t21.5 59.5t-21.5 63.5t-58.5 28.5 q-31 0 -58.5 -22.5t-43.5 -45.5q-4 4 -20.5 18.5t-20.5 18.5q-16 12 -40 11t-38 -1h-47q-37 -10 -47 -47q0 -25 -1 -89t-2 -135t-2 -134.5t-1 -87.5v-119v-111z" />
<glyph unicode="s" horiz-adv-x="645" d="M20 776v31v76q0 53 2.5 100t17.5 87t46 69.5t90 46.5q45 14 85 18t87 4q76 0 127 -12t82 -42t44 -81t13 -127v-76t-12 -73q-6 -18 -26.5 -27.5t-42 -15.5t-39 -12.5t-17.5 -18.5v-4q2 -2 11.5 -10.5t11.5 -10.5q74 -90 99.5 -201.5t25.5 -222.5q0 -94 -13.5 -149 t-48.5 -84t-93 -37t-151 -8q-104 0 -163.5 14.5t-88 51t-35.5 102.5t-7 168v20v33q0 16 1 31.5t1 21.5q4 14 14 25.5t27 11.5q12 0 23 -3t24 -3q47 0 47 45q0 23 -11.5 43.5t-11.5 42.5q0 27 23 27q14 0 24 -17q4 -8 16.5 -31.5t14.5 -31.5q4 -4 16.5 -15.5t25.5 -23.5 t25.5 -23.5t16.5 -15.5q16 -12 40 -20.5t34 -30.5v-76v-76q0 -12 -2 -31.5t-7.5 -40t-15.5 -35t-28 -14.5q-35 0 -49.5 20.5t-19.5 50.5t-5 65q0 37 -8.5 66.5t-29 50t-65.5 20.5q-35 0 -56 -20.5t-21 -55.5v-8q0 -10 2 -36t3 -55.5t3 -55t2 -35.5q4 -41 41 -73t78 -32h256 q31 0 67.5 20.5t46.5 53.5v115q0 52 1 112v7q0 56 -17 104q-4 8 -14.5 30.5t-21.5 47t-22.5 47t-15.5 30.5q-4 6 -13 24.5t-11 23.5q-8 10 -17.5 14t-18.5 5t-19.5 3t-18.5 8q-23 16 -29 30.5t-22 37.5q-27 39 -37 69.5t-10 77.5v31q0 23 3 43t11 35.5t27 15.5 q18 0 24 -17.5t8 -44t4 -56t12.5 -56.5t33 -44t67.5 -17q25 0 57.5 14t32.5 47v158q0 37 -12 58.5t-32.5 34.5t-48.5 20.5t-58 15.5q-23 6 -37 6h-41h-41q-20 0 -41 -6q-4 -2 -21.5 -7t-39 -11.5t-41 -13.5t-29.5 -9q-18 -6 -31.5 -24.5t-15.5 -39.5q-4 -80 -8 -169 q-3 -62 -4 -121q0 -26 1 -52q-4 -12 -10 -16q-12 8 -18 24.5t-9.5 35t-3.5 34.5z" />
<glyph unicode="t" horiz-adv-x="546" d="M20 1047q0 27 5.5 47t13.5 37.5t17.5 36t15.5 44.5q6 18 7 49t7 61t20.5 53.5t45.5 29.5l149 27q16 4 30.5 12t30.5 8q20 0 25.5 -26.5t7.5 -41.5q0 -8 2 -30.5t3 -47t3.5 -47t2.5 -30.5q6 -23 19 -36t27.5 -24.5t25.5 -23.5t11 -33v-8q-2 -4 -4 -18.5t-2 -18.5v-2 q0 -16 11.5 -36.5t15.5 -39.5v-6q0 -18 -12.5 -26.5t-28.5 -16.5t-31.5 -20.5t-21.5 -38.5q-6 -84 -6 -174v-170v-43v-66q0 -33 1 -62.5t1 -41.5q2 -27 11 -38.5t21.5 -17.5t23.5 -12t21 -23q18 -29 18 -58q-1 -3 -1 -7q-1 -10 0 -20q0 -25 4 -54q0 -4 7 -28.5t7 -28.5 q2 0 2 -8q0 -20 -16 -34.5t-37 -14.5h-4q-75 10 -135 10h-20h-17q-55 0 -95 11q-46 13 -73 57t-35 151q-2 25 -6 69t-7 88t-6 79.5t-3 43.5v392q0 2 -1 9t-3 11q-10 23 -18.5 39t-14.5 31.5t-10.5 33t-4.5 42.5zM129 553q0 -41 1 -70.5t13 -70.5v-308q0 -23 21 -38t39 -19 q51 -4 93 -5t89 -1q41 0 62.5 18.5t21.5 61.5q0 25 -6 40t-27 32q-13 -1 -24 -1q-28 0 -40 7q-16 10 -18 57q0 6 -1 19.5t-2 28.5t-2 27.5t-1 16.5v109q0 78 3 152.5t3 152.5v123q-6 23 -19 42t-13 42q0 14 6 27.5t10 29.5q0 14 2 51t3 79t3 79t2 51v10q0 29 -12 48.5 t-43 19.5q-18 0 -44 -3t-48.5 -11.5t-40 -23.5t-21.5 -40q0 -6 -1 -24.5t-1 -38.5q0 -18 -1 -37t-1 -25v-469q-4 -35 -5 -68.5t-1 -70.5zM410 1065q0 -10 4 -27.5t20 -17.5q12 0 20.5 17.5t8.5 27.5q0 14 -8.5 26.5t-24.5 12.5t-18 -13.5t-2 -25.5z" />
<glyph unicode="u" d="M20 1133q0 49 54 49q84 0 164.5 -8.5t164.5 -8.5q63 0 127 6.5t127 6.5q12 0 25.5 -8.5t13.5 -24.5v-1098q0 -10 -12 -21.5t-22 -15.5q-37 1 -74 1q-64 0 -126 -4q-98 -7 -200 -7q-43 0 -77.5 3t-60.5 16.5t-43.5 41t-29.5 74.5q-10 41 -13 89t-7 89v625q0 8 -1 29.5 t-1 44.5q0 25 -1 46t-1 29q-4 14 -5.5 23.5t-1.5 22.5zM82 412q0 -18 2 -21q0 -12 1 -40.5t3 -61.5t4 -62t2 -39q2 -18 10.5 -41.5t20.5 -45t30.5 -36t41.5 -14.5h104q29 0 51.5 18.5t22.5 47.5t-18.5 51t-28.5 45q-23 45 -25 97t-2 100q0 37 1 65.5t5 65.5v532 q0 25 -17.5 36t-41 16t-47.5 5h-37q-37 0 -59.5 -16t-22.5 -57v-6t2 -4q0 -6 2 -27t2 -25v-428q-4 -37 -5 -63.5t-1 -61.5v-30zM422 1020q0 -33 1 -102.5t2 -158.5t2 -186.5t2 -185.5t2 -158.5t1 -103.5q4 -18 19.5 -34.5t37.5 -16.5h99q25 0 39 17.5t18 39.5v59 q0 221 -3 438.5t-3 438.5q-14 53 -78 53h-51q-25 0 -44.5 -7t-31.5 -22.5t-12 -46.5v-24z" />
<glyph unicode="v" horiz-adv-x="692" d="M20 1126q0 12 7.5 30t23.5 18h260l47 -11h281q14 0 23.5 -12t9.5 -23q0 -6 -2 -6q0 -6 -4 -24.5t-7 -22.5l-20 -239l-88 -619q-2 -6 -5 -20.5t-6 -32t-6.5 -31.5t-3.5 -20q-4 -16 -5 -34t-6 -32t-17.5 -23.5t-34.5 -9.5h-21q-16 0 -47.5 2t-65.5 3t-62.5 3.5t-37.5 2.5 q-31 2 -50 14t-27 43q-6 104 -22.5 208.5t-45.5 207.5l-55 415v152q-8 23 -10.5 34t-2.5 27zM72 1018q0 -4 4 -22.5t9 -40t9 -40t4 -22.5q2 -8 5 -43t6.5 -76t6.5 -76.5t3 -44.5q0 -4 4 -19.5t7 -31.5t6 -31.5t3 -19.5t2 -17.5t4 -27.5t3.5 -27.5t1.5 -17.5 q6 -33 25.5 -63.5t19.5 -65.5v-182q0 -31 17 -49.5t42 -28.5q35 -2 66.5 -4t66.5 -2q39 0 59.5 20t31.5 51t15.5 67t10.5 64q6 33 7 71t3 64q4 35 15.5 60.5t17.5 64.5q0 4 1 21.5t1 36.5q0 20 1 36.5t1 20.5q2 27 9 56.5t11 54.5q12 72 19.5 141.5t7.5 142.5q0 84 -84 84 q-29 0 -53.5 -12t-34.5 -39q0 -8 1 -29.5t1 -46.5t-1 -46t-1 -29q0 -6 -4 -30t-9 -51.5t-9.5 -51t-4.5 -29.5t-1 -27.5t-3 -46.5t-4 -45.5t-2 -26.5q0 -4 -3 -19t-6 -32.5t-7 -33t-4 -19.5q-2 -8 -5.5 -36t-5.5 -36q0 -2 -4 -6h-4h-2q-2 2 -3 8t-3 8q-27 131 -33 259.5 t-18 261.5q-4 35 -4 63q0 31 -8.5 52.5t-29 33.5t-63.5 12q-47 0 -80.5 -17t-33.5 -71v-22zM348 1047q0 -8 10 -9q10 0 13.5 8.5t3.5 16.5q0 4 -3 15.5t-14 6.5q-10 -2 -10 -10v-12v-16z" />
<glyph unicode="w" horiz-adv-x="1114" d="M20 1130v15q0 23 13.5 36t36.5 13q113 0 221 -12q2 0 13 -1t23.5 -3t22.5 -4.5t15 -2.5h20q49 0 97 3.5t96 3.5q49 0 96 -3.5t96 -3.5q53 0 98 1.5t105 5.5q8 2 33.5 8t29.5 6t7.5 1t5.5 1q16 0 30.5 -15.5t14.5 -31.5q0 -10 -2 -12q0 -4 -4.5 -26t-6.5 -26 q0 -10 -2 -32.5t-3 -48t-3 -49t-2 -31.5l-117 -775v-100q0 -8 -13 -18.5t-19 -12.5h-93q-49 0 -100 1t-100 6q-2 0 -10.5 1t-17.5 3t-18.5 4t-11.5 2h-20h-21q-4 0 -21 -3t-35.5 -5t-36 -5.5t-21.5 -3.5q-6 0 -28.5 -2t-49.5 -3t-49.5 -3t-28.5 -2q-4 0 -23.5 -5t-23.5 -5 h-10q-16 0 -33.5 12t-17.5 29v90l-115 821q0 8 -1 26.5t-2 40t-2 41t-1 27.5q0 4 -5.5 23.5t-5.5 23.5zM68 1063q0 -37 16 -71t20 -70q0 -6 1 -36t3 -62.5t4.5 -62.5t2.5 -36q0 -4 3 -18.5t6 -32t7 -31.5t4 -18q4 -33 6 -58.5t11 -54.5q4 -18 11 -42t9 -42v-25 q0 -18 1 -39.5t2 -41t1 -25.5q0 -4 4 -20.5t9.5 -36t9.5 -37t4 -21.5q0 -2 2 -13t3 -23.5t3 -22.5t2 -12q0 -4 3 -13.5t7 -13.5q18 -23 43 -27t53 -4q25 0 48.5 1t44 7.5t36 19.5t25.5 40q2 8 5 28.5t6 44t6.5 44t3.5 28.5q2 8 2 31q0 25 -2 33l47 467l5 20t11 17 q12 -10 18.5 -25.5t6.5 -32.5l57 -635q2 -33 21.5 -49t45 -22.5t54.5 -6.5h53q74 0 86 74q4 23 11.5 61t14.5 74.5t12 65.5t5 33q0 6 2 24.5t4 40t3 40t1 24.5l84 547v10q0 41 -23.5 60.5t-60.5 19.5q-41 0 -72.5 -16.5t-41.5 -57.5q-4 -174 -20.5 -346t-20.5 -346 q-2 -8 -4 -17.5t-13 -9.5q-6 0 -11 12.5t-10 27.5t-7 29.5t-2 18.5l-48 647q-4 31 -34.5 46.5t-55.5 15.5h-8q-8 0 -23.5 -2t-32 -3t-30.5 -3.5t-18 -2.5q-27 -4 -56.5 -17t-31.5 -46l-33 -514l-25 -131q-2 -2 -3 -5t-3 -5h-2q-6 0 -10 15t-4 17l-41 623q-2 25 -19.5 44 t-42.5 19h-104q-27 0 -42 -22t-15 -45zM510 139q0 -18 12.5 -38.5t34.5 -20.5q25 0 33 20.5t8 40.5q0 6 -3 23.5t-7 34t-12.5 30t-16.5 13.5t-17.5 -13.5t-16.5 -30t-11 -34t-4 -25.5z" />
<glyph unicode="x" horiz-adv-x="714" d="M20 53q0 16 8.5 33.5t12.5 32.5q0 8 3 32.5t6 50t6 49t5 34.5q8 45 23.5 88l31 86t28 86t12.5 90q0 57 -12.5 96t-28.5 96q-2 8 -7.5 27.5t-10.5 41.5t-9 41t-4 26q-2 4 -4 22.5t-5 37.5t-5 37.5t-2 22.5q-4 20 -12.5 38t-8.5 38q0 16 13.5 27.5t29.5 11.5h8 q88 -10 174 -16t177 -6h26t40 1t40 1h29q4 0 20.5 2t20.5 2h8q20 0 37.5 -9.5t17.5 -31.5q0 -23 -8 -42.5t-12 -41.5q-10 -57 -25.5 -113.5t-32 -112t-28 -111.5t-11.5 -114q0 -8 1 -22.5t1 -16.5l89 -360q0 -6 2 -19.5t5 -28t5 -27.5t4 -19q0 -4 7 -23.5t7 -23.5q2 0 2 -9 q0 -23 -19.5 -30t-39.5 -7q-4 0 -17.5 -1t-29.5 -1h-29h-16q-53 0 -102.5 3.5t-100.5 3.5q-66 0 -130.5 -5.5t-129.5 -5.5h-29q-12 4 -21.5 15.5t-9.5 23.5zM104 145q0 -84 89 -84q59 0 73.5 29t24.5 76q10 41 16 78t10 78q0 2 1 11t3.5 20.5t6.5 19.5t10 8q10 0 16 -10.5 t11 -18.5q23 -41 24 -92t6.5 -96t27 -77t87.5 -32q37 0 65.5 13.5t28.5 54.5q0 74 -17.5 154.5t-39.5 148.5q-14 47 -30.5 81t-16.5 83v14l37 203q4 23 17 42t19 42q4 14 9.5 37.5t9.5 48t7 47.5t5 39v14q0 35 -23.5 49.5t-54.5 14.5q-43 0 -65.5 -13.5t-32.5 -37t-12 -55 t-4 -66.5q-4 -35 -12.5 -69t-18.5 -66q-4 -12 -10 -13q-8 0 -13 6q-2 6 -7 24.5t-7 22.5q-2 8 -6 31t-4 27t-1 22.5t-2 38t-2 38t-1 22.5q-4 47 -39 62t-76 15q-20 0 -43 -3t-29 -27q-2 -6 -2 -29v-27q0 -53 7.5 -107t29.5 -103q14 -29 28.5 -56.5t18.5 -58.5q0 -10 1 -38 t1 -36q0 -49 -5 -90t-27 -86q-2 -4 -10.5 -21.5t-18.5 -37t-18.5 -37t-10.5 -21.5q-10 -20 -16 -46.5t-9.5 -55.5t-4.5 -56.5t-1 -48.5z" />
<glyph unicode="y" horiz-adv-x="681" d="M20 1112q0 25 13.5 42t42.5 17q74 0 147.5 -3t147.5 -3q59 0 117.5 3t117.5 3h29q16 -4 21.5 -16t5.5 -27q0 -16 -2.5 -28.5t-10.5 -32.5l-98 -702l-135 -656q-2 -31 -11.5 -62.5t-48.5 -31.5q-20 0 -33.5 2t-35.5 8h-148q-14 0 -25.5 10.5t-11.5 24.5q0 16 7.5 29.5 t9.5 29.5l47 359v162q0 47 -19.5 91t-27.5 91q0 6 -5 35.5t-10.5 62.5t-9.5 62.5t-6 35.5q-25 129 -46.5 246t-21.5 248zM78 1022q0 -92 19.5 -183t47.5 -177q0 -4 2.5 -11.5t4.5 -11.5q0 -10 2 -33.5t4 -51.5t5 -52.5t3 -32.5q0 -4 2 -13.5t4 -13.5q10 -41 33.5 -75.5 t23.5 -75.5v-197q-2 -6 -4 -19.5t-5 -27.5t-5 -27.5t-2 -19.5q0 -4 -1 -14.5t-2 -22.5t-2 -23.5t-1 -13.5q-4 -41 -15.5 -79.5t-11.5 -79.5q0 -47 19.5 -74t70.5 -27q35 0 52.5 12.5t24.5 31t10 43t12 48.5q10 35 21 62.5t16 62.5q4 41 6 93.5t14 95.5q2 4 7 20.5t11.5 35.5 t12.5 36.5t6 21.5q2 12 9 45t15.5 70t14.5 69.5t8 45.5q4 86 21.5 166t25.5 166q0 6 2 21t2 19q10 53 18.5 102.5t8.5 102.5q0 43 -18.5 67.5t-65.5 24.5q-29 0 -53.5 -11t-38.5 -40v-98q-2 -4 -3 -15.5t-3 -17.5q0 -2 -3.5 -12t-5.5 -21.5t-5 -21.5t-3 -12q0 -4 -2 -16.5 t-2 -14.5l-10 -219q-2 -16 -8.5 -45t-12.5 -47q-2 -4 -6 -11q0 -2 -2 -2q-10 0 -11 15.5t-3 17.5l-31 317q-12 47 -15 90q-1 19 -1 40q0 27 2 57q-14 31 -32.5 44t-53.5 13q-18 0 -37 -1t-36 -5t-30.5 -14.5t-19.5 -30.5v-45z" />
<glyph unicode="z" horiz-adv-x="587" d="M20 68q0 16 1.5 26t5.5 25q-3 47 -3 102v27q1 70 17 131t39.5 117.5t45 113t36 113.5t14.5 123v31q-4 10 -13 24t-24 14h-78q-4 0 -11 12.5t-9 16.5q0 8 -1 28.5t-1 43.5t-1 42t-1 27q-2 4 -6 23.5t-4 24.5q-2 0 -2 8q0 23 18 36t39 13q14 0 23.5 -1t23.5 -5q26 1 52 1 q51 0 101 -3q74 -4 152 -4q20 0 39 3t39 3t31.5 -14.5t11.5 -34.5q0 -98 -13.5 -194.5t-31.5 -192.5q-10 -51 -30.5 -100.5t-41 -99.5t-35 -101.5t-14.5 -104.5v-31q4 -14 18.5 -24.5t28.5 -12.5q10 -2 44 -3t44 -3q16 -4 24.5 -16t8.5 -29q0 -23 -3 -41t-3 -41q0 -25 8 -45 t8 -45q0 -27 -16 -37t-41 -10q-114 0 -228 7q-72 4 -146 4q-42 0 -85 -1q-20 4 -25.5 20.5t-5.5 33.5zM72 119q12 -29 18 -35t35 -18q12 0 46 -1.5t73 -1.5t72.5 -1t45.5 -1h52h49q23 8 37 29t14 45q0 37 -21.5 59.5t-58.5 22.5q-31 0 -56.5 -15.5t-53.5 -15.5 q-23 0 -38.5 15.5t-15.5 38.5q0 14 7.5 33.5t17.5 39t19.5 41t13.5 39.5q0 2 2 15.5t5 27t5 25.5t2 16q4 20 18.5 50t18.5 44q2 4 7 20.5t11 36t11.5 36t7.5 20.5q0 2 5 12.5t10 20.5t10 19t5 12q14 31 16.5 64.5t10.5 64.5q0 4 4 18t9.5 31.5t8.5 32t3 18.5q2 2 2 20v29v23 q0 20 -2 26q-12 45 -62 51q-14 0 -50 1t-76 2t-74.5 2.5t-49.5 1.5h-28q-37 0 -61.5 -20.5t-24.5 -59.5q0 -29 21.5 -50.5t49.5 -21.5q23 0 41.5 8t40.5 8q8 0 25.5 -3t34 -8t30 -13t13.5 -19q0 -10 -8.5 -16t-18.5 -11t-20.5 -10.5t-16.5 -13.5q-10 -16 -13 -27.5t-7 -29.5 q-10 -66 -17.5 -140.5t-40.5 -134.5q-10 -20 -21 -36.5t-20 -36.5q-10 -23 -10 -47q0 -25 -10 -48q-2 -4 -8 -15t-13.5 -25.5t-13.5 -26.5t-8 -14q0 -2 -2 -8.5t-2 -8.5q0 -6 -1 -21.5t-2 -33t-2 -32.5t-1 -21v-39v-39z" />
<glyph unicode="&#xc6;" horiz-adv-x="1150" d="M20 53q0 14 6.5 25.5t10.5 23.5q6 23 7 38.5t3 45.5q2 25 11.5 84.5t20.5 127t21.5 127t14.5 83.5q12 72 36.5 138.5t34.5 138.5q2 8 6.5 42t10.5 71.5t10 71.5t6 42q4 25 15.5 86.5t24.5 129t25.5 128t16.5 84.5q0 14 3 32.5t9 35t18.5 27t33.5 10.5q10 0 19 -1.5 t22 -5.5h77q70 0 137.5 3.5t137.5 3.5q78 0 156.5 -4.5t156.5 -2.5q33 -8 33 -41v-6q-2 -6 -8 -30.5t-9 -30.5v-131q0 -12 -15 -25.5t-25 -15.5l-173 -21q-25 -4 -38 -19t-19 -38v-45q0 -25 -2 -61.5t4 -73.5t22.5 -64.5t53.5 -31.5l145 -17q14 0 28.5 -13t14.5 -28 q0 -23 -11 -45t-11 -45t3 -41t7 -41q-6 -37 -38 -43t-69.5 -8t-70.5 -11.5t-39 -52.5v-16t-1 -25.5t-1 -25.5v-19q0 -16 1 -48.5t1 -37.5q0 -29 1 -60.5t10 -59t28.5 -46t58.5 -20.5h119q18 -2 30.5 -18.5t12.5 -32.5q0 -23 -3 -43.5t-3 -42.5q0 -29 11 -55.5t11 -55.5 q0 -23 -19 -36t-42 -13q-12 0 -20.5 1t-22.5 5q-18 0 -63 2t-96.5 3t-95.5 3t-62 2h-125q-16 4 -26.5 15.5t-10.5 27.5q0 18 5 35t5 35v17q0 8 -2 30.5t-5 47t-5 46t-4 31.5q-4 33 -20.5 56.5t-51.5 23.5q-31 0 -49.5 -17.5t-24.5 -45.5q-2 -12 -5 -41t-8 -61t-8 -60.5 t-5 -40.5v-68q-10 -25 -25.5 -34t-40.5 -9q-29 0 -57.5 3t-59.5 3q-29 0 -54.5 -3t-53.5 -3q-20 0 -39 11.5t-19 33.5zM102 123q0 -43 31 -55.5t68 -12.5q72 0 95 35t32 103q2 12 5 44.5t6 68.5t6 69t3 45q2 16 14.5 42.5t21.5 26.5h11q4 0 6 -2q16 -16 33 -28.5t41 -12.5 q18 0 30.5 7.5t23 16.5t18.5 16.5t18 7.5h2q6 -6 18.5 -14.5t26 -17.5t23.5 -19.5t10 -18.5v-8q-10 -8 -28.5 -26.5t-22.5 -37.5q0 -4 -1 -16t-1 -17q0 -49 8 -101t14 -99q4 -20 19.5 -35.5t38.5 -15.5h338q33 0 45 33.5t12 58.5q0 41 -20.5 70.5t-65.5 29.5 q-39 0 -66.5 -15.5t-56.5 -41.5q0 -2 -8 -2q-10 0 -17.5 8t-11.5 18.5t-7 20.5t-3 16q0 4 -1 19.5t-1 31.5q0 18 -1 34t-1 20q-2 12 -9 41.5t-7 46.5v223q-4 23 -7.5 38t-3.5 36q0 14 6.5 38.5t22.5 24.5q10 0 20.5 -7t23.5 -16.5t29.5 -16.5t39.5 -7q45 0 71.5 23.5 t26.5 68.5q0 53 -38 71.5t-85 18.5q-20 0 -35.5 -7t-27 -16t-19.5 -16.5t-14 -7.5t-16.5 8.5t-19.5 19.5t-15.5 22.5t-6.5 19.5q0 23 11.5 44t11.5 48q0 76 -6 150.5t-17 150.5v14q0 16 10.5 33t26.5 17t33.5 -14.5t34.5 -18.5h55q31 0 57.5 2t45 11t30 30.5t11.5 58.5 q0 33 -11.5 50.5t-30 23.5t-42.5 6h-52q-4 0 -13 1t-20.5 2t-21.5 2t-12 1h-78h-70q-4 0 -15 -1t-26.5 -3t-30 -4t-20.5 -2q-18 -4 -34.5 -20.5t-32.5 -16.5h-7q-18 20 -42.5 33.5t-53.5 13.5q-27 0 -48 -14t-28 -43l-71 -402q-29 -74 -33 -151.5t-14 -155.5 q-4 -25 -15.5 -48t-21.5 -46q-10 -27 -13.5 -57.5t-7.5 -57.5q-4 -29 -15 -54.5t-15 -53.5l-48 -359q0 -2 -1 -10t-1 -12zM365 645q0 23 18 41.5t23 40.5q0 2 2 14.5t3 25.5t3 24.5t2 13.5q0 4 4 18.5t9 31.5t9 31.5t4 18.5q2 8 5.5 38t8.5 63.5t8 63.5t5 38q0 4 5 21.5 t10 38t10.5 38t5.5 21.5q0 6 2 29.5t3 51t3 51t2 30.5q0 6 4 34.5t6 38.5q4 20 17 25q6 -2 8 -12.5t2 -12.5l10 -692q0 -37 18.5 -67.5t18.5 -65.5q0 -16 -10.5 -42t-26.5 -28q-18 16 -31.5 26.5t-36.5 10.5q-4 0 -11 -1t-9 -1q-4 -4 -21.5 -17.5t-21.5 -17.5q0 -2 -4 -4 t-6 -2h-2q-4 0 -12.5 11.5t-16.5 24.5t-14 27.5t-6 20.5z" />
<glyph unicode="&#xe6;" horiz-adv-x="1042" d="M20 270v131v119q0 2 2.5 17.5t4.5 36t5 41t5 32.5q2 18 7 38t28 20q14 0 27.5 -3.5t27.5 -3.5q12 0 31.5 3.5t38 11.5t32 20t13.5 29q0 2 -1 5t-1 5l-31 31v10q4 4 27.5 15.5t29.5 21.5q12 20 15.5 50t11.5 56.5t24.5 46t55.5 19.5q14 0 22 -9t12.5 -22.5t6.5 -28 t2 -24.5q0 -8 2 -29.5t4 -46t3 -46t1 -30.5q4 -16 15.5 -30.5t11.5 -30.5q0 -23 -17.5 -39t-19.5 -39l-10 -381q0 -12 -3.5 -34.5t-11.5 -44t-20.5 -37t-32.5 -15.5q-16 0 -25.5 13.5t-13.5 31t-6 34.5t-2 26v104v109q0 6 1 20t2 29.5t2 30t1 20.5q2 29 21.5 47t39.5 35 q0 4 1 9t1 7q0 29 -22 37h-51q-18 0 -53 -5t-70 -15.5t-60.5 -28.5t-25.5 -45v-365q0 -25 1 -52t7 -53t21.5 -45.5t44.5 -25.5q4 -2 22 -2h27h28t21 2q4 0 18.5 1t30.5 3t30.5 4t18.5 2h14h27h27h16q2 0 12.5 1.5t21.5 3.5t21.5 4t12.5 2h16q33 0 70 -11.5t65 -21.5h172 q59 0 84 43t35 94q2 8 6 31.5t8.5 49.5t8.5 48.5t4 30.5v27q0 39 -16.5 59t-57.5 20q-55 0 -84 -4t-41 -19t-15 -44t-5 -80q0 -6 -1 -19.5t-3.5 -27.5t-4.5 -27.5t-2 -19.5q-4 -18 -14 -38t-33 -20q-16 0 -25.5 10.5t-14.5 24t-8 28.5t-3 28q-2 12 -4 44.5t-5 69.5t-5 70 t-2 45q-2 23 -16.5 41t-30.5 31v16q16 16 29.5 35.5t13.5 42.5q0 29 -19.5 48t-19.5 46q0 23 14 41t18 41q0 6 2 18.5t4.5 26.5t3.5 27.5t1 17.5q2 14 1 36.5t3 43t16 35t37 14.5q47 0 59.5 -34t14.5 -74v-103v-100q-2 -4 -6.5 -23.5t-14.5 -19.5h-53q-10 0 -13 -14.5 t-3 -20.5q0 -23 9 -34t23.5 -16t33 -6t34.5 -3q4 0 23.5 -4.5t23.5 -6.5h51h54q39 12 51 54v43q0 106 -13.5 210.5t-33.5 208.5q-10 33 -47 50.5t-68 17.5h-199q-29 -8 -47 -9t-47 -1q-45 0 -89 6t-89 6q-43 0 -80 -4t-80 -19q-31 -10 -44 -28.5t-18 -42t-6.5 -51 t-3.5 -54.5q-4 -23 -10 -39t-6 -38v-17l47 -47q-8 -14 -31.5 -23.5t-40.5 -9.5q-10 0 -15 8.5t-7 18.5v80q0 45 3 84t13 82q10 39 20.5 64.5t28 41t42 22.5t65.5 13q25 0 89.5 2t137 3t137 3t89.5 2h57q125 0 191.5 -49t84.5 -180q10 -68 16.5 -139.5t6.5 -141.5 q0 -102 -4 -196.5t-2 -200.5q-2 -41 -9.5 -80t-17.5 -76q-16 -53 -37.5 -82.5t-52.5 -45t-72 -19.5t-92 -4q-66 0 -129 8t-129 8q-59 0 -119.5 -8t-121.5 -8q-53 0 -89 4t-60 20.5t-37 48t-19 89.5q0 10 -2 29.5t-4 38t-3.5 33.5t-1.5 17z" />
<glyph unicode="&#x2000;" horiz-adv-x="834" />
<glyph unicode="&#x2001;" horiz-adv-x="1669" />
<glyph unicode="&#x2002;" horiz-adv-x="834" />
<glyph unicode="&#x2003;" horiz-adv-x="1669" />
<glyph unicode="&#x2004;" horiz-adv-x="556" />
<glyph unicode="&#x2005;" horiz-adv-x="417" />
<glyph unicode="&#x2006;" horiz-adv-x="278" />
<glyph unicode="&#x2007;" horiz-adv-x="278" />
<glyph unicode="&#x2008;" horiz-adv-x="208" />
<glyph unicode="&#x2009;" horiz-adv-x="333" />
<glyph unicode="&#x200a;" horiz-adv-x="92" />
<glyph unicode="&#x202f;" horiz-adv-x="333" />
<glyph unicode="&#x205f;" horiz-adv-x="417" />
<glyph unicode="&#x25fc;" horiz-adv-x="1198" d="M0 0v1198h1198v-1198h-1198z" />
</font>
</defs>
</svg>
